<?xml version="1.0" encoding="UTF-8" standalone="no"?>
<svg
   xmlns:dc="http://purl.org/dc/elements/1.1/"
   xmlns:cc="http://creativecommons.org/ns#"
   xmlns:rdf="http://www.w3.org/1999/02/22-rdf-syntax-ns#"
   xmlns:svg="http://www.w3.org/2000/svg"
   xmlns="http://www.w3.org/2000/svg"
   xmlns:sodipodi="http://sodipodi.sourceforge.net/DTD/sodipodi-0.dtd"
   xmlns:inkscape="http://www.inkscape.org/namespaces/inkscape"
   width="11in"
   height="8.5in"
   viewBox="0 0 279.4 215.9"
   version="1.1"
   id="svg8"
   sodipodi:docname="Mechtrix.svg"
   inkscape:export-filename="/home/waldc/Pictures/Mechtrix.png"
   inkscape:export-xdpi="300.03091"
   inkscape:export-ydpi="300.03091"
   inkscape:version="1.0.2 (e86c870879, 2021-01-15)">
  <defs
     id="defs2" />
  <sodipodi:namedview
     id="base"
     pagecolor="#ffffff"
     bordercolor="#666666"
     borderopacity="1.0"
     inkscape:pageopacity="0.0"
     inkscape:pageshadow="2"
     inkscape:zoom="1.979899"
     inkscape:cx="533.7415"
     inkscape:cy="407.5746"
     inkscape:document-units="mm"
     inkscape:current-layer="layer1"
     inkscape:document-rotation="0"
     showgrid="false"
     units="in"
     inkscape:window-width="1908"
     inkscape:window-height="999"
     inkscape:window-x="0"
     inkscape:window-y="0"
     inkscape:window-maximized="1" />
  <metadata
     id="metadata5">
    <rdf:RDF>
      <cc:Work
         rdf:about="">
        <dc:format>image/svg+xml</dc:format>
        <dc:type
           rdf:resource="http://purl.org/dc/dcmitype/StillImage" />
        <dc:title></dc:title>
      </cc:Work>
    </rdf:RDF>
  </metadata>
  <g
     inkscape:label="Layer 1"
     inkscape:groupmode="layer"
     id="layer1">
    <g
       id="g1263"
       transform="translate(-0.26591945,0.215414)">
      <circle
         style="fill:#000000;stroke-width:0.175313"
         id="path1041-4-9"
         cx="101.20951"
         cy="104.28698"
         r="2.7449493"
         inkscape:export-filename="/home/waldc/Pictures/Mechtrix.png"
         inkscape:export-xdpi="300"
         inkscape:export-ydpi="300"
         inkscape:transform-center-x="-16.036172"
         inkscape:transform-center-y="-49.712132" />
    </g>
    <path
       d="M 39.294343,124.95244 V 89.173149 h 5.515974 L 61.785328,106.86403 78.760344,89.173149 h 5.51597 v 35.779291 h -4.02517 V 93.744949 L 61.785328,113.17509 43.319513,93.744949 v 31.207491 z"
       style="font-style:normal;font-variant:normal;font-weight:normal;font-stretch:normal;font-size:38.4739px;line-height:1.25;font-family:Orbitron;-inkscape-font-specification:Orbitron;stroke-width:0.517639"
       id="path969-9-7"
       inkscape:export-filename="/home/waldc/Pictures/Mechtrix.png"
       inkscape:export-xdpi="300"
       inkscape:export-ydpi="300"
       sodipodi:nodetypes="ccccccccccccc" />
    <path
       d="m 123.89104,124.95244 c -1.09325,0 -2.10368,-0.26503 -3.03129,-0.7951 -0.89449,-0.56319 -1.62332,-1.29202 -2.18651,-2.18651 -0.53007,-0.92761 -0.7951,-1.93805 -0.7951,-3.03131 v -16.79638 c 0,-1.09325 0.26503,-2.08712 0.7951,-2.981611 0.56319,-0.92761 1.29202,-1.65645 2.18651,-2.18651 0.92761,-0.56319 1.93804,-0.84479 3.03129,-0.84479 h 16.90651 v 4.074871 h -16.90651 c -0.53006,0 -0.99386,0.19877 -1.3914,0.59631 -0.36443,0.36443 -0.54664,0.81167 -0.54664,1.34173 v 16.79638 c 0,0.53008 0.18221,0.99389 0.54664,1.39143 0.39754,0.36442 0.86134,0.54663 1.3914,0.54663 h 17.0059 v 4.07486 z"
       style="font-style:normal;font-variant:normal;font-weight:normal;font-stretch:normal;font-size:38.4739px;line-height:1.25;font-family:Orbitron;-inkscape-font-specification:Orbitron;stroke-width:0.517639"
       id="path973-9-8"
       inkscape:export-filename="/home/waldc/Pictures/Mechtrix.png"
       inkscape:export-xdpi="300"
       inkscape:export-ydpi="300"
       sodipodi:nodetypes="sccssccsccsssscsccs" />
    <path
       d="m 143.41135,124.95244 v 0 -32.972301 h 4.07487 v 4.15009 h 11.34355 c 1.09325,0 2.08712,0.2816 2.9816,0.84479 0.92762,0.53006 1.65646,1.2589 2.18652,2.18651 0.56319,0.894491 0.87014,1.888651 0.84479,2.981611 v 22.8093 h -4.07487 v -22.8093 c 0,-0.53006 -0.19877,-0.9773 -0.59632,-1.34173 -0.36441,-0.39754 -0.81165,-0.59631 -1.34172,-0.59631 h -9.35581 c -0.53007,0 -0.99387,0.19877 -1.39142,0.59631 -0.39755,0.36443 -0.59632,0.81167 -0.59632,1.34173 v 22.8093 z"
       style="font-style:normal;font-variant:normal;font-weight:normal;font-stretch:normal;font-size:38.4739px;line-height:1.25;font-family:Orbitron;-inkscape-font-specification:Orbitron;stroke-width:0.517639"
       id="path975-65-6"
       inkscape:export-filename="/home/waldc/Pictures/Mechtrix.png"
       inkscape:export-xdpi="300"
       inkscape:export-ydpi="300"
       sodipodi:nodetypes="cccccsccsccscsscscc" />
    <path
       d="m 172.97058,124.95244 c -1.12639,0 -2.15338,-0.26503 -3.08099,-0.7951 -0.89447,-0.56319 -1.60675,-1.29202 -2.13683,-2.18651 -0.53006,-0.92761 -0.79509,-1.93805 -0.79509,-3.03131 V 91.980139 h 4.07487 v 4.15009 h 9.82721 v 4.074871 h -9.82721 v 18.73442 c 0,0.53008 0.18221,0.99389 0.54662,1.39143 0.39755,0.36442 0.86136,0.54663 1.39142,0.54663 h 7.88917 v 4.07486 z"
       style="font-style:normal;font-variant:normal;font-weight:normal;font-stretch:normal;font-size:38.4739px;line-height:1.25;font-family:Orbitron;-inkscape-font-specification:Orbitron;stroke-width:0.517639"
       id="path977-5-7"
       inkscape:export-filename="/home/waldc/Pictures/Mechtrix.png"
       inkscape:export-xdpi="300"
       inkscape:export-ydpi="300"
       sodipodi:nodetypes="sccsccccccscsccs" />
    <path
       d="m 198.77622,124.95244 v 0 -28.822211 h 4.07487 v 28.822211 z"
       style="font-style:normal;font-variant:normal;font-weight:normal;font-stretch:normal;font-size:38.4739px;line-height:1.25;font-family:Orbitron;-inkscape-font-specification:Orbitron;stroke-width:0.517639"
       id="path1075-67-7"
       sodipodi:nodetypes="cccccc"
       inkscape:export-filename="/home/waldc/Pictures/Mechtrix.png"
       inkscape:export-xdpi="300"
       inkscape:export-ydpi="300" />
    <path
       d="m 205.09825,124.95244 v 0 -0.0498 l 14.67164,-15.13905 -14.67164,-14.642115 v -0.0497 h 5.3669 l 11.98821,11.461735 12.03788,-11.461735 h 5.31721 v 0.0497 l -14.67164,14.642115 14.72132,15.13905 v 0.0498 h -5.36689 l -12.03788,-12.05806 -11.98821,12.05806 z"
       style="font-style:normal;font-variant:normal;font-weight:normal;font-stretch:normal;font-size:38.4739px;line-height:1.25;font-family:Orbitron;-inkscape-font-specification:Orbitron;stroke-width:0.517639"
       id="path1077-3-0"
       inkscape:export-filename="/home/waldc/Pictures/Mechtrix.png"
       inkscape:export-xdpi="300"
       inkscape:export-ydpi="300"
       sodipodi:nodetypes="cccccccccccccccccc" />
    <g
       aria-label="r"
       id="text1236-9"
       style="font-size:20.9016px;line-height:1.25;font-family:serif;-inkscape-font-specification:serif;stroke-width:0.522541"
       transform="translate(-5.7129996,40.323569)">
      <path
         d="m 188.41901,84.628868 v 0 -22.758007 c 0,-1.103608 0.26754,-2.106888 0.80263,-3.00984 0.56853,-0.936395 1.30426,-1.672133 2.20721,-2.207216 0.9364,-0.568525 1.9564,-0.852788 3.06001,-0.852788 h 7.8868 v 4.113448 h -7.8868 c -0.53509,0 -1.00328,0.200656 -1.40459,0.601968 -0.36787,0.367869 -0.55181,0.819345 -0.55181,1.354428 v 22.758007 z"
         style="font-style:normal;font-variant:normal;font-weight:normal;font-stretch:normal;font-size:50.164px;font-family:Orbitron;-inkscape-font-specification:'Orbitron Bold';stroke-width:0.522541"
         id="path1238-4"
         sodipodi:nodetypes="ccsccsccssscc" />
    </g>
    <g
       id="g1263-5"
       transform="translate(8.4109404,40.538989)">
      <path
         d="m 83.858179,84.413454 c -1.093256,0 -2.10369,-0.265033 -3.031301,-0.7951 -0.894482,-0.563187 -1.62332,-1.292023 -2.186513,-2.18651 -0.530063,-0.927613 -0.795094,-1.93805 -0.795094,-3.03131 V 61.604156 c 0,-1.093255 0.265031,-2.087124 0.795094,-2.981609 0.563193,-0.927612 1.292031,-1.65645 2.186513,-2.186513 0.927611,-0.563192 1.938045,-0.844788 3.031301,-0.844788 H 101.1515 c 1.12639,0 2.13682,0.281596 3.03131,0.844788 0.92762,0.530063 1.65646,1.258901 2.18652,2.186513 0.56319,0.894485 0.90014,1.889757 0.84478,2.981609 v 10.43564 H 81.920135 v 6.360738 c 0,0.53008 0.182209,0.99389 0.546628,1.39143 0.397547,0.36442 0.861353,0.54663 1.391416,0.54663 h 23.355931 v 4.07486 z M 81.920135,67.964936 h 21.169415 v -6.36078 c 0,-0.53006 -0.19877,-0.977302 -0.59632,-1.341727 -0.36442,-0.397546 -0.81167,-0.596319 -1.34173,-0.596319 H 83.858179 c -0.530063,0 -0.993869,0.198773 -1.391416,0.596319 -0.364419,0.364425 -0.546628,0.811667 -0.546628,1.341727 z"
         style="font-style:normal;font-variant:normal;font-weight:normal;font-stretch:normal;font-size:38.4739px;line-height:1.25;font-family:Orbitron;-inkscape-font-specification:Orbitron;stroke-width:0.517639"
         id="path971-2-4"
         inkscape:export-filename="/home/waldc/Pictures/Mechtrix.png"
         inkscape:export-xdpi="300"
         inkscape:export-ydpi="300"
         sodipodi:nodetypes="sccssccssccsccscsccsccscssssc" />
    </g>
  </g>
</svg>
