<?xml version="1.0" encoding="UTF-8" standalone="no"?>
<svg
   xmlns:dc="http://purl.org/dc/elements/1.1/"
   xmlns:cc="http://creativecommons.org/ns#"
   xmlns:rdf="http://www.w3.org/1999/02/22-rdf-syntax-ns#"
   xmlns:svg="http://www.w3.org/2000/svg"
   xmlns="http://www.w3.org/2000/svg"
   xmlns:sodipodi="http://sodipodi.sourceforge.net/DTD/sodipodi-0.dtd"
   xmlns:inkscape="http://www.inkscape.org/namespaces/inkscape"
   width="11in"
   height="8.5in"
   viewBox="0 0 279.4 215.9"
   version="1.1"
   id="svg8"
   sodipodi:docname="Wankel.svg"
   inkscape:export-filename="/home/waldc/Pictures/Mechtrix.png"
   inkscape:export-xdpi="300.03091"
   inkscape:export-ydpi="300.03091"
   inkscape:version="1.0.2 (e86c870879, 2021-01-15)">
  <defs
     id="defs2" />
  <sodipodi:namedview
     id="base"
     pagecolor="#ffffff"
     bordercolor="#666666"
     borderopacity="1.0"
     inkscape:pageopacity="0.0"
     inkscape:pageshadow="2"
     inkscape:zoom="2.4329258"
     inkscape:cx="476.06207"
     inkscape:cy="335.26186"
     inkscape:document-units="mm"
     inkscape:current-layer="layer1"
     inkscape:document-rotation="0"
     showgrid="false"
     units="in"
     inkscape:window-width="1908"
     inkscape:window-height="999"
     inkscape:window-x="0"
     inkscape:window-y="0"
     inkscape:window-maximized="1" />
  <metadata
     id="metadata5">
    <rdf:RDF>
      <cc:Work
         rdf:about="">
        <dc:format>image/svg+xml</dc:format>
        <dc:type
           rdf:resource="http://purl.org/dc/dcmitype/StillImage" />
        <dc:title></dc:title>
      </cc:Work>
    </rdf:RDF>
  </metadata>
  <g
     inkscape:label="Layer 1"
     inkscape:groupmode="layer"
     id="layer1">
    <g
       id="g1263"
       transform="translate(0.53588913,63.023753)">
      <circle
         style="fill:#000000;stroke-width:0.175313"
         id="path1041-4-9"
         cx="101.20951"
         cy="104.28698"
         r="2.7449493"
         inkscape:export-filename="/home/waldc/Pictures/Mechtrix.png"
         inkscape:export-xdpi="300"
         inkscape:export-ydpi="300"
         inkscape:transform-center-x="-16.036172"
         inkscape:transform-center-y="-49.712132" />
    </g>
    <path
       d="m 40.096152,187.76078 v -35.77929 h 5.515974 l 16.975011,17.69088 16.975016,-17.69088 h 5.51597 v 35.77929 h -4.02517 V 156.55329 L 62.587137,175.98343 44.121322,156.55329 v 31.20749 z"
       style="font-style:normal;font-variant:normal;font-weight:normal;font-stretch:normal;font-size:38.4739px;line-height:1.25;font-family:Orbitron;-inkscape-font-specification:Orbitron;stroke-width:0.517639"
       id="path969-9-7"
       inkscape:export-filename="/home/waldc/Pictures/Mechtrix.png"
       inkscape:export-xdpi="300"
       inkscape:export-ydpi="300"
       sodipodi:nodetypes="ccccccccccccc" />
    <path
       d="m 124.69285,187.76078 c -1.09325,0 -2.10368,-0.26503 -3.03129,-0.7951 -0.89449,-0.56319 -1.62332,-1.29202 -2.18651,-2.18651 -0.53007,-0.92761 -0.7951,-1.93805 -0.7951,-3.03131 v -16.79638 c 0,-1.09325 0.26503,-2.08712 0.7951,-2.98161 0.56319,-0.92761 1.29202,-1.65645 2.18651,-2.18651 0.92761,-0.56319 1.93804,-0.84479 3.03129,-0.84479 h 16.90651 v 4.07487 h -16.90651 c -0.53006,0 -0.99386,0.19877 -1.3914,0.59631 -0.36443,0.36443 -0.54664,0.81167 -0.54664,1.34173 v 16.79638 c 0,0.53008 0.18221,0.99389 0.54664,1.39143 0.39754,0.36442 0.86134,0.54663 1.3914,0.54663 h 17.0059 v 4.07486 z"
       style="font-style:normal;font-variant:normal;font-weight:normal;font-stretch:normal;font-size:38.4739px;line-height:1.25;font-family:Orbitron;-inkscape-font-specification:Orbitron;stroke-width:0.517639"
       id="path973-9-8"
       inkscape:export-filename="/home/waldc/Pictures/Mechtrix.png"
       inkscape:export-xdpi="300"
       inkscape:export-ydpi="300"
       sodipodi:nodetypes="sccssccsccsssscsccs" />
    <path
       d="m 144.21316,187.76078 v 0 -32.9723 h 4.07487 v 4.15009 h 11.34355 c 1.09325,0 2.08712,0.2816 2.9816,0.84479 0.92762,0.53006 1.65646,1.2589 2.18652,2.18651 0.56319,0.89449 0.87014,1.88865 0.84479,2.98161 v 22.8093 h -4.07487 v -22.8093 c 0,-0.53006 -0.19877,-0.9773 -0.59632,-1.34173 -0.36441,-0.39754 -0.81165,-0.59631 -1.34172,-0.59631 h -9.35581 c -0.53007,0 -0.99387,0.19877 -1.39142,0.59631 -0.39755,0.36443 -0.59632,0.81167 -0.59632,1.34173 v 22.8093 z"
       style="font-style:normal;font-variant:normal;font-weight:normal;font-stretch:normal;font-size:38.4739px;line-height:1.25;font-family:Orbitron;-inkscape-font-specification:Orbitron;stroke-width:0.517639"
       id="path975-65-6"
       inkscape:export-filename="/home/waldc/Pictures/Mechtrix.png"
       inkscape:export-xdpi="300"
       inkscape:export-ydpi="300"
       sodipodi:nodetypes="cccccsccsccscsscscc" />
    <path
       d="m 173.77239,187.76078 c -1.12639,0 -2.15338,-0.26503 -3.08099,-0.7951 -0.89447,-0.56319 -1.60675,-1.29202 -2.13683,-2.18651 -0.53006,-0.92761 -0.79509,-1.93805 -0.79509,-3.03131 v -26.95938 h 4.07487 v 4.15009 h 9.82721 v 4.07487 h -9.82721 v 18.73442 c 0,0.53008 0.18221,0.99389 0.54662,1.39143 0.39755,0.36442 0.86136,0.54663 1.39142,0.54663 h 7.88917 v 4.07486 z"
       style="font-style:normal;font-variant:normal;font-weight:normal;font-stretch:normal;font-size:38.4739px;line-height:1.25;font-family:Orbitron;-inkscape-font-specification:Orbitron;stroke-width:0.517639"
       id="path977-5-7"
       inkscape:export-filename="/home/waldc/Pictures/Mechtrix.png"
       inkscape:export-xdpi="300"
       inkscape:export-ydpi="300"
       sodipodi:nodetypes="sccsccccccscsccs" />
    <path
       d="m 199.57803,187.76078 v 0 -28.82221 h 4.07487 v 28.82221 z"
       style="font-style:normal;font-variant:normal;font-weight:normal;font-stretch:normal;font-size:38.4739px;line-height:1.25;font-family:Orbitron;-inkscape-font-specification:Orbitron;stroke-width:0.517639"
       id="path1075-67-7"
       sodipodi:nodetypes="cccccc"
       inkscape:export-filename="/home/waldc/Pictures/Mechtrix.png"
       inkscape:export-xdpi="300"
       inkscape:export-ydpi="300" />
    <path
       d="m 205.90006,187.76078 v 0 -0.0498 l 14.67164,-15.13905 -14.67164,-14.64212 v -0.0497 h 5.3669 l 11.98821,11.46174 12.03788,-11.46174 h 5.31721 v 0.0497 l -14.67164,14.64212 14.72132,15.13905 v 0.0498 h -5.36689 l -12.03788,-12.05806 -11.98821,12.05806 z"
       style="font-style:normal;font-variant:normal;font-weight:normal;font-stretch:normal;font-size:38.4739px;line-height:1.25;font-family:Orbitron;-inkscape-font-specification:Orbitron;stroke-width:0.517639"
       id="path1077-3-0"
       inkscape:export-filename="/home/waldc/Pictures/Mechtrix.png"
       inkscape:export-xdpi="300"
       inkscape:export-ydpi="300"
       sodipodi:nodetypes="cccccccccccccccccc" />
    <g
       aria-label="r"
       id="text1236-9"
       style="font-size:20.9016px;line-height:1.25;font-family:serif;-inkscape-font-specification:serif;stroke-width:0.522541"
       transform="translate(-4.911191,103.13191)">
      <path
         d="m 188.41901,84.628868 v 0 -22.758007 c 0,-1.103608 0.26754,-2.106888 0.80263,-3.00984 0.56853,-0.936395 1.30426,-1.672133 2.20721,-2.207216 0.9364,-0.568525 1.9564,-0.852788 3.06001,-0.852788 h 7.8868 v 4.113448 h -7.8868 c -0.53509,0 -1.00328,0.200656 -1.40459,0.601968 -0.36787,0.367869 -0.55181,0.819345 -0.55181,1.354428 v 22.758007 z"
         style="font-style:normal;font-variant:normal;font-weight:normal;font-stretch:normal;font-size:50.164px;font-family:Orbitron;-inkscape-font-specification:'Orbitron Bold';stroke-width:0.522541"
         id="path1238-4"
         sodipodi:nodetypes="ccsccsccssscc" />
    </g>
    <g
       id="g1263-5"
       transform="translate(9.212749,103.34733)">
      <path
         d="m 83.858179,84.413454 c -1.093256,0 -2.10369,-0.265033 -3.031301,-0.7951 -0.894482,-0.563187 -1.62332,-1.292023 -2.186513,-2.18651 -0.530063,-0.927613 -0.795094,-1.93805 -0.795094,-3.03131 V 61.604156 c 0,-1.093255 0.265031,-2.087124 0.795094,-2.981609 0.563193,-0.927612 1.292031,-1.65645 2.186513,-2.186513 0.927611,-0.563192 1.938045,-0.844788 3.031301,-0.844788 H 101.1515 c 1.12639,0 2.13682,0.281596 3.03131,0.844788 0.92762,0.530063 1.65646,1.258901 2.18652,2.186513 0.56319,0.894485 0.90014,1.889757 0.84478,2.981609 v 10.43564 H 81.920135 v 6.360738 c 0,0.53008 0.182209,0.99389 0.546628,1.39143 0.397547,0.36442 0.861353,0.54663 1.391416,0.54663 h 23.355931 v 4.07486 z M 81.920135,67.964936 h 21.169415 v -6.36078 c 0,-0.53006 -0.19877,-0.977302 -0.59632,-1.341727 -0.36442,-0.397546 -0.81167,-0.596319 -1.34173,-0.596319 H 83.858179 c -0.530063,0 -0.993869,0.198773 -1.391416,0.596319 -0.364419,0.364425 -0.546628,0.811667 -0.546628,1.341727 z"
         style="font-style:normal;font-variant:normal;font-weight:normal;font-stretch:normal;font-size:38.4739px;line-height:1.25;font-family:Orbitron;-inkscape-font-specification:Orbitron;stroke-width:0.517639"
         id="path971-2-4"
         inkscape:export-filename="/home/waldc/Pictures/Mechtrix.png"
         inkscape:export-xdpi="300"
         inkscape:export-ydpi="300"
         sodipodi:nodetypes="sccssccssccsccscsccsccscssssc" />
    </g>
    <text
       xml:space="preserve"
       style="font-size:10.5833px;line-height:1.25;font-family:serif;-inkscape-font-specification:serif;stroke-width:0.264583"
       x="53.186634"
       y="49.979401"
       id="text1604"><tspan
         sodipodi:role="line"
         id="tspan1602"
         x="53.186634"
         y="49.979401"
         style="stroke-width:0.264583" /></text>
    <path
       d="m 97.15081,98.441338 q -1.551043,0 -2.867079,-0.752021 -1.269035,-0.799022 -2.068057,-2.068057 -0.752021,-1.316037 -0.752021,-2.86708 V 82.883907 H 115.3403 v -6.016166 q 0,-0.752021 -0.56401,-1.269036 -0.51702,-0.564015 -1.26904,-0.564015 H 91.463653 v -3.854107 h 22.043597 q 1.59805,0 2.86708,0.799022 1.31604,0.752021 2.06806,2.068057 0.79902,1.269036 0.79902,2.820079 v 21.573597 z m 0,-3.854107 H 115.3403 V 86.738014 H 95.31776 v 6.016166 q 0,0.752021 0.517014,1.316037 0.564016,0.517014 1.316036,0.517014 z"
       style="font-style:normal;font-variant:normal;font-weight:normal;font-stretch:normal;font-size:47.0013px;line-height:1.25;font-family:Orbitron;-inkscape-font-specification:Orbitron;stroke-width:1.17503"
       id="path1612" />
    <path
       d="m 120.23702,98.441338 v 0 -27.260755 h 22.09061 q 1.55104,0 2.82008,0.799022 1.31604,0.752021 2.06806,2.068057 0.79902,1.269036 0.79902,2.820079 v 21.573597 h -3.85411 V 76.867741 q 0,-0.752021 -0.56401,-1.269036 -0.51702,-0.564015 -1.26904,-0.564015 h -16.35645 q -0.75202,0 -1.31604,0.564015 -0.56401,0.517015 -0.56401,1.269036 v 21.573597 z"
       style="font-style:normal;font-variant:normal;font-weight:normal;font-stretch:normal;font-size:47.0013px;line-height:1.25;font-family:Orbitron;-inkscape-font-specification:Orbitron;stroke-width:1.17503"
       id="path1614" />
    <path
       d="m 149.02443,98.441338 v 0 -30.899335 h 3.8541 v 15.341904 h 7.52021 l 10.7163,-11.703324 h 5.07614 v 0.047 l -12.36134,13.583376 12.31434,13.583376 v 0.047 h -5.02914 l -10.7163,-11.703324 h -7.52021 v 11.703324 z"
       style="font-style:normal;font-variant:normal;font-weight:normal;font-stretch:normal;font-size:47.0013px;line-height:1.25;font-family:Orbitron;-inkscape-font-specification:Orbitron;stroke-width:1.17503"
       id="path1616"
       sodipodi:nodetypes="ccccccccccccccccc" />
    <path
       d="m 179.87518,98.441338 q -1.55105,0 -2.86708,-0.752021 -1.26904,-0.799022 -2.06806,-2.068057 -0.75202,-1.316037 -0.75202,-2.86708 V 76.867741 q 0,-1.551043 0.75202,-2.820079 0.79902,-1.316036 2.06806,-2.068057 1.31603,-0.799022 2.86708,-0.799022 h 16.35645 q 1.59804,0 2.86708,0.799022 1.31603,0.752021 2.06806,2.068057 0.79902,1.269036 0.79902,2.820079 v 9.870273 h -23.92366 v 6.016166 q 0,0.752021 0.51701,1.316037 0.56402,0.517014 1.31604,0.517014 h 22.09061 v 3.854107 z m -1.83305,-15.557431 h 20.02255 v -6.016166 q 0,-0.752021 -0.56402,-1.269036 -0.51701,-0.564015 -1.26903,-0.564015 h -16.35645 q -0.75202,0 -1.31604,0.564015 -0.51701,0.517015 -0.51701,1.269036 z"
       style="font-style:normal;font-variant:normal;font-weight:normal;font-stretch:normal;font-size:47.0013px;line-height:1.25;font-family:Orbitron;-inkscape-font-specification:Orbitron;stroke-width:1.17503"
       id="path1618" />
    <path
       d="m 208.74657,98.441338 c -1.03403,0 -1.98972,-0.250674 -2.86708,-0.752021 -0.84602,-0.532681 -1.53537,-1.222034 -2.06805,-2.068057 -0.50135,-0.877358 -0.75203,-1.833051 -0.75203,-2.86708 V 67.542003 h 3.85411 V 92.75418 c 0,0.501347 0.17234,0.940026 0.51702,1.316037 0.37601,0.344676 0.81468,0.517014 1.31603,0.517014 h 4.60613 v 3.854107 z"
       style="font-style:normal;font-variant:normal;font-weight:normal;font-stretch:normal;font-size:47.0013px;line-height:1.25;font-family:Orbitron;-inkscape-font-specification:Orbitron;stroke-width:1.17503"
       id="path1620"
       sodipodi:nodetypes="sccsccscsccs" />
    <path
       d="m 45.431337,65.643092 v 32.60429 h 5.515974 l 16.975011,-17.69088 16.975012,17.69088 h 5.51597 v -32.60429 h -4.02517 v 28.03249 L 67.922322,74.245442 49.456507,93.675582 v -28.03249 z"
       style="font-style:normal;font-variant:normal;font-weight:normal;font-stretch:normal;font-size:38.4739px;line-height:1.25;font-family:Orbitron;-inkscape-font-specification:Orbitron;stroke-width:0.517639"
       id="path969-9-7-4"
       inkscape:export-filename="/home/waldc/Pictures/Mechtrix.png"
       inkscape:export-xdpi="300"
       inkscape:export-ydpi="300"
       sodipodi:nodetypes="ccccccccccccc" />
  </g>
</svg>
