ply
format ascii 1.0
comment Created in Blender version 5.1.1
element vertex 474
property float x
property float y
property float z
property uchar red
property uchar green
property uchar blue
property uchar alpha
property float s
property float t
element face 564
property list uchar uint vertex_indices
end_header
-125 125 -125 64 64 64 255 0.375 0.25
-125 18.75 12.5 73 73 73 255 0.5125 0.14375
-125 125 125 32 32 32 255 0.625 0.25
-125 -125 -125 32 32 32 255 0.375 0
-125 -125 125 32 32 32 255 0.625 0
-125 -18.75 -12.5 73 73 73 255 0.48749998 0.10625
125 125 -125 32 32 32 255 0.375 0.5
18.75 125 12.5 73 73 73 255 0.5125 0.39375
125 125 125 47 47 47 255 0.625 0.5
-18.75 125 -12.5 73 73 73 255 0.48749998 0.35625
125 18.75 -12.5 73 73 73 255 0.48749998 0.60625
125 -125 -125 47 47 47 255 0.375 0.75
125 -18.75 12.5 73 73 73 255 0.5125 0.64374995
125 -125 125 64 64 64 255 0.625 0.75
18.75 -125 -12.5 73 73 73 255 0.48749998 0.85625
-125 -125 -125 32 32 32 255 0.375 1
-18.75 -125 12.5 73 73 73 255 0.5125 0.89374995
-125 -125 125 32 32 32 255 0.625 1
-125 -125 -125 32 32 32 255 0.125 0.75
-125 125 -125 64 64 64 255 0.125 0.5
-125 125 125 32 32 32 255 0.875 0.5
-106.24999 -106.25 -62.500008 147 147 147 255 0.125 0.75
106.24999 106.25 -62.500008 93 93 93 255 0.375 0.5
-106.24999 106.25 -62.500008 120 120 120 255 0.125 0.5
106.24999 -106.25 62.500008 188 188 188 255 0.625 0.75
-106.24999 106.25 62.500008 147 147 147 255 0.875 0.5
106.24999 106.25 62.500008 115 115 115 255 0.625 0.5
-106.24999 -32.659874 20.4485 254 254 254 255 0.540897 0.086576626
-106.328995 31.102463 19.558552 254 254 254 255 0.5391171 0.16159114
-106.24999 32.659874 20.4485 254 254 254 255 0.540897 0.16342339
-106.328995 -31.102463 19.558552 254 254 254 255 0.53911716 0.08840887
-106.56502 29.564638 18.679794 254 254 254 255 0.5373596 0.15978193
-106.56502 -29.564638 18.679794 254 254 254 255 0.5373596 0.09021808
-106.95509 28.065735 17.823278 254 254 254 255 0.53564656 0.1580185
-106.95509 -28.065735 17.823278 254 254 254 255 0.53564656 0.0919815
-107.494316 26.624607 16.999777 254 254 254 255 0.53399956 0.15632308
-108.1759 -25.259377 16.219646 254 254 254 255 0.53243935 0.0952831
-108.1759 25.259377 16.219646 254 254 254 255 0.53243935 0.15471691
-108.99128 23.987211 15.492693 254 254 254 255 0.5309854 0.15322025
-108.99128 -23.987211 15.492693 254 254 254 255 0.5309854 0.096779756
-109.9302 22.824108 14.828063 254 254 254 255 0.52500004 0.14705883
-109.9302 -22.824108 14.828064 254 254 254 255 0.79249996 0.74999994
-110.980835 21.784698 14.234114 254 254 254 255 0.79439235 0.47976866
-109.9302 22.824108 14.828063 254 254 254 255 0.7925 0.5
-110.980835 -21.784698 14.234114 254 254 254 255 0.7943923 0.7702313
-112.130005 20.882048 13.718313 254 254 254 255 0.7948521 0.48578635
-112.130005 -20.88205 13.718314 254 254 254 255 0.7948519 0.7642136
-113.36324 20.127512 13.287151 254 254 254 255 0.7953453 0.49081656
-113.36324 -20.127512 13.287151 254 254 254 255 0.7953453 0.75918335
-114.66504 19.530577 12.946044 254 254 254 255 0.7958661 0.4947962
-114.66504 -19.530577 12.946044 254 254 254 255 0.795866 0.75520384
-116.01902 19.098751 12.699287 254 254 254 255 0.79640764 0.49767497
-116.01902 -19.098751 12.699287 254 254 254 255 0.7964076 0.752325
-117.408165 18.837465 12.549979 254 254 254 255 0.7969633 0.4994169
-117.408165 -18.837465 12.549979 254 254 254 255 0.7969632 0.75058305
-118.815 18.75 12.5 254 254 254 255 0.797526 0.5
-118.815 -18.75 -12.5 254 254 254 255 0.375 0.922526
-117.408165 -18.837465 12.549979 254 254 254 255 0.62549984 0.92196333
-117.408165 -18.83714 -12.579007 254 254 254 255 0.37420997 0.9219633
-116.01902 -19.098751 12.699287 254 254 254 255 0.62699294 0.9214077
-116.01902 -19.097454 -12.815032 254 254 254 255 0.37184966 0.92140764
-114.66504 -19.530577 12.946044 254 254 254 255 0.62946045 0.920866
-114.66504 -19.527674 -13.205107 254 254 254 255 0.36794895 0.9208661
-113.36324 -20.127512 13.287151 254 254 254 255 0.6328715 0.9203453
-113.36324 -20.12239 -13.7443285 254 254 254 255 0.3625567 0.92034525
-112.130005 -20.88205 13.718314 254 254 254 255 0.6371831 0.919852
-112.130005 -20.87412 -14.425912 254 254 254 255 0.3557409 0.919852
-110.980835 -21.784698 14.234114 254 254 254 255 0.64234114 0.91939235
-110.980835 -21.773413 -15.241289 254 254 254 255 0.3475871 0.91939235
-109.9302 -22.824108 14.828064 254 254 254 255 0.625 0.9175
-109.9302 -22.80896 -16.180206 254 254 254 255 0.37499997 0.91749996
-109.9302 -22.80896 -16.180206 254 254 254 255 0.47500002 0.102941185
-108.99128 -23.967735 -17.230854 254 254 254 255 0.46553826 0.09680267
-108.1759 -25.23517 -18.380022 254 254 254 255 0.46324003 0.095311575
-107.494316 -26.624609 16.999777 254 254 254 255 0.53399956 0.09367694
-107.494316 -26.595324 -19.613255 254 254 254 255 0.4607736 0.093711406
-106.95509 -28.031096 -20.91505 254 254 254 255 0.4581699 0.09202225
-106.56502 -29.524424 -22.269032 254 254 254 255 0.45546195 0.090265386
-106.328995 -31.05653 -23.658173 254 254 254 255 0.45268366 0.088462904
-106.24999 -32.60815 -25.065008 254 254 254 255 0.44987005 0.08663748
-106.328995 31.05653 -23.658173 254 254 254 255 0.4526837 0.16153711
-106.24999 32.60815 -25.065008 254 254 254 255 0.44987 0.16336255
-106.56502 29.524424 -22.269032 254 254 254 255 0.45546192 0.1597346
-106.95509 28.031096 -20.91505 254 254 254 255 0.4581699 0.15797774
-107.494316 26.595324 -19.613255 254 254 254 255 0.46077353 0.15628862
-108.1759 25.235172 -18.380022 254 254 254 255 0.46324 0.15468843
-108.99128 23.967735 -17.230854 254 254 254 255 0.46553835 0.15319735
-109.9302 22.80896 -16.180206 254 254 254 255 0.47500002 0.14705883
-109.9302 22.824108 14.828063 254 254 254 255 0.625 0.33249998
-110.980835 21.773413 -15.241289 254 254 254 255 0.3475871 0.33060768
-109.9302 22.80896 -16.180206 254 254 254 255 0.375 0.33249998
-110.980835 21.784698 14.234114 254 254 254 255 0.64234114 0.33060765
-112.130005 20.87412 -14.425913 254 254 254 255 0.35574088 0.33014798
-112.130005 20.882048 13.718313 254 254 254 255 0.63718307 0.33014795
-113.36324 20.12239 -13.7443285 254 254 254 255 0.36255676 0.3296547
-113.36324 20.127512 13.287151 254 254 254 255 0.6328715 0.3296547
-114.66504 19.527674 -13.205107 254 254 254 255 0.36794895 0.32913396
-114.66504 19.530577 12.946044 254 254 254 255 0.62946045 0.329134
-116.01902 19.097454 -12.815032 254 254 254 255 0.3718497 0.3285924
-116.01902 19.098751 12.699287 254 254 254 255 0.62699294 0.3285924
-117.408165 18.83714 -12.579007 254 254 254 255 0.37420997 0.32803673
-117.408165 18.837465 12.549979 254 254 254 255 0.62549984 0.32803673
-118.815 18.75 -12.5 254 254 254 255 0.375 0.327474
-109.9302 22.80896 -16.180206 254 254 254 255 0.2075 0.5
-110.980835 -21.773413 -15.241289 254 254 254 255 0.20560765 0.7701561
-109.9302 -22.80896 -16.180206 254 254 254 255 0.2075 0.75
-110.980835 21.773413 -15.241289 254 254 254 255 0.20560768 0.47984397
-112.130005 -20.87412 -14.425912 254 254 254 255 0.205148 0.7641608
-112.130005 20.87412 -14.425913 254 254 254 255 0.20514798 0.4858392
-113.36324 -20.12239 -13.7443285 254 254 254 255 0.20465471 0.7591493
-113.36324 20.12239 -13.7443285 254 254 254 255 0.2046547 0.4908507
-114.66504 -19.527674 -13.205107 254 254 254 255 0.20413399 0.7551845
-114.66504 19.527674 -13.205107 254 254 254 255 0.20413397 0.4948155
-116.01902 -19.097454 -12.815032 254 254 254 255 0.20359239 0.7523163
-116.01902 19.097454 -12.815032 254 254 254 255 0.20359239 0.49768358
-117.408165 -18.83714 -12.579007 254 254 254 255 0.20303673 0.7505809
-117.408165 18.83714 -12.579007 254 254 254 255 0.20303674 0.4994191
-118.815 -18.75 -12.5 254 254 254 255 0.202474 0.75
-125 -18.75 -12.5 73 73 73 255 0.375 0.925
-118.815 -18.75 12.5 254 254 254 255 0.625 0.922526
-106.24999 -106.25 -62.500008 147 147 147 255 0.375 0
-106.24999 106.25 -62.500008 120 120 120 255 0.375 0.25
-125 -18.75 -12.5 73 73 73 255 0.2 0.75
-118.815 18.75 -12.5 254 254 254 255 0.202474 0.5
-125 18.75 -12.5 73 73 73 255 0.2 0.5
-125 18.75 -12.5 73 73 73 255 0.375 0.325
-118.815 18.75 12.5 254 254 254 255 0.625 0.327474
-125 18.75 12.5 73 73 73 255 0.625 0.325
-125 -18.75 12.5 73 73 73 255 0.8 0.75
-125 18.75 12.5 73 73 73 255 0.8 0.5
-106.24999 106.25 62.500008 147 147 147 255 0.625 0.25
33.526703 -106.25 20.943836 235 235 235 255 0.5418877 0.8355569
-31.872238 -106.33393 19.998426 175 175 175 255 0.53999686 0.9124968
-33.526703 -106.25 20.943836 231 231 231 255 0.5418877 0.91444325
31.872238 -106.33393 19.998426 182 182 182 255 0.53999686 0.8375033
-30.238579 -106.58467 19.064905 112 112 112 255 0.5381298 0.91057485
30.238579 -106.58467 19.064905 115 115 115 255 0.5381298 0.83942527
-28.646269 -106.99905 18.155012 79 79 79 255 0.5363101 0.90870154
28.646269 -106.99905 18.155012 81 81 81 255 0.5363101 0.8412986
-27.115334 -107.57187 17.280193 73 73 73 255 0.53456044 0.90690047
27.115334 -107.57187 17.280193 73 73 73 255 0.53456044 0.8430997
-25.665022 -108.29593 16.451445 73 73 73 255 0.5329029 0.9051942
25.665022 -108.29593 16.451445 73 73 73 255 0.53290296 0.84480596
-24.31358 -109.162125 15.67919 73 73 73 255 0.5313584 0.90360427
24.31358 -109.162125 15.67919 73 73 73 255 0.5313584 0.84639585
-23.078 -110.159546 14.973144 73 73 73 255 0.52500004 0.8970589
23.078 -110.159546 14.973144 73 73 73 255 0.79249996 0.74999994
-21.97381 -111.27567 14.342179 73 73 73 255 0.79451025 0.47850794
-23.078 -110.159546 14.973144 73 73 73 255 0.7925 0.5
21.97381 -111.27567 14.342179 73 73 73 255 0.79451025 0.77149206
-21.01491 -112.49645 13.794236 73 73 73 255 0.79499865 0.48490065
21.01491 -112.49645 13.794236 73 73 73 255 0.7949986 0.76509935
-20.213354 -113.80654 13.336203 73 73 73 255 0.79552263 0.4902443
20.213354 -113.80654 13.336203 73 73 73 255 0.79552263 0.7597556
-19.57922 -115.18945 12.97384 73 73 73 255 0.79607576 0.49447188
19.57922 -115.18945 12.97384 73 73 73 255 0.79607576 0.7555281
-19.120485 -116.627815 12.711705 73 73 73 255 0.7966511 0.49753013
19.120485 -116.627815 12.711705 73 73 73 255 0.7966511 0.7524699
-18.842913 -118.10352 12.553093 73 73 73 255 0.7972414 0.4993806
18.842913 -118.10352 12.553093 73 73 73 255 0.7972414 0.75061935
-18.75 -119.59803 12.5 73 73 73 255 0.7978393 0.5
-31.82344 -106.33393 -24.353527 249 249 249 255 0.451293 0.91243935
-33.471756 -106.25 -25.84803 254 254 254 255 0.44830388 0.9143785
-30.195856 -106.58467 -22.877813 211 211 211 255 0.45424443 0.9105246
-28.60947 -106.99905 -21.439455 122 122 122 255 0.45712113 0.9086583
-27.084229 -107.57187 -20.056538 78 78 78 255 0.4598869 0.90686375
-25.63931 -108.29593 -18.74645 73 73 73 255 0.46250716 0.90516394
-24.292892 -109.162125 -17.52567 73 73 73 255 0.46494865 0.90357995
-23.061903 -110.159546 -16.40955 73 73 73 255 0.47500005 0.8970589
-23.078 -110.159546 14.973144 73 73 73 255 0.625 0.33249998
-21.961823 -111.27567 -15.41212 73 73 73 255 0.3458788 0.33048972
-23.061903 -110.159546 -16.40955 73 73 73 255 0.375 0.33249998
-21.97381 -111.27567 14.342179 73 73 73 255 0.6434218 0.33048972
-21.006489 -112.49645 -14.545931 73 73 73 255 0.3545407 0.3300014
-21.01491 -112.49645 13.794236 73 73 73 255 0.6379423 0.33000135
-20.207912 -113.80654 -13.82187 73 73 73 255 0.3617813 0.3294774
-20.213354 -113.80654 13.336203 73 73 73 255 0.63336205 0.3294774
-19.576136 -115.18945 -13.249047 73 73 73 255 0.3675095 0.32892418
-19.57922 -115.18945 12.97384 73 73 73 255 0.6297384 0.32892418
-19.119106 -116.627815 -12.834664 73 73 73 255 0.37165338 0.32834888
-19.120485 -116.627815 12.711705 73 73 73 255 0.62711704 0.32834888
-18.84257 -118.10352 -12.583931 73 73 73 255 0.37416065 0.32775855
-18.842913 -118.10352 12.553093 73 73 73 255 0.6255309 0.32775855
-18.75 -119.59803 -12.5 73 73 73 255 0.375 0.32716078
18.75 -119.59803 -12.5 73 73 73 255 0.20216079 0.75
-18.84257 -118.10352 -12.583931 73 73 73 255 0.20275858 0.49938282
-18.75 -119.59803 -12.5 73 73 73 255 0.20216079 0.5
18.84257 -118.10352 -12.58393 73 73 73 255 0.20275858 0.750617
-19.119106 -116.627815 -12.834664 73 73 73 255 0.20334889 0.49753934
19.119106 -116.627815 -12.834663 73 73 73 255 0.20334888 0.7524607
-19.576136 -115.18945 -13.249047 73 73 73 255 0.20392422 0.4944924
19.576136 -115.18945 -13.249047 73 73 73 255 0.20392421 0.7555076
-20.207912 -113.80654 -13.82187 73 73 73 255 0.2044774 0.49028066
20.207912 -113.80654 -13.82187 73 73 73 255 0.2044774 0.7597195
-21.006489 -112.49645 -14.545931 73 73 73 255 0.2050014 0.48495674
21.006489 -112.49645 -14.545931 73 73 73 255 0.20500143 0.76504326
-21.961823 -111.27567 -15.41212 73 73 73 255 0.20548972 0.4785879
21.961823 -111.27567 -15.41212 73 73 73 255 0.20548972 0.77141213
-23.061903 -110.159546 -16.40955 73 73 73 255 0.2075 0.5
23.061903 -110.159546 -16.409548 73 73 73 255 0.47500002 0.8529412
24.29289 -109.162125 -17.52567 73 73 73 255 0.46494865 0.84642017
27.084227 -107.57187 -20.056538 73 73 73 255 0.45988697 0.84313625
28.60947 -106.99905 -21.439455 110 110 110 255 0.4571211 0.84134185
30.195856 -106.58467 -22.877813 193 193 193 255 0.4542444 0.8394755
31.82344 -106.33393 -24.353527 245 245 245 255 0.451293 0.83756065
18.75 -119.59803 -12.5 73 73 73 255 0.375 0.92283916
18.842913 -118.10352 12.553093 73 73 73 255 0.6255309 0.92224145
18.84257 -118.10352 -12.58393 73 73 73 255 0.37416065 0.92224133
19.120485 -116.627815 12.711705 73 73 73 255 0.62711704 0.9216511
19.119106 -116.627815 -12.834663 73 73 73 255 0.37165335 0.9216511
19.57922 -115.18945 12.97384 73 73 73 255 0.62973845 0.9210758
19.576136 -115.18945 -13.249047 73 73 73 255 0.36750948 0.9210758
20.213354 -113.80654 13.336203 73 73 73 255 0.63336205 0.9205227
20.207912 -113.80654 -13.82187 73 73 73 255 0.36178127 0.9205226
21.01491 -112.49645 13.794236 73 73 73 255 0.6379424 0.91999865
21.006489 -112.49645 -14.545931 73 73 73 255 0.35454068 0.9199986
21.97381 -111.27567 14.342179 73 73 73 255 0.64342177 0.91951025
21.961823 -111.27567 -15.41212 73 73 73 255 0.34587878 0.91951025
23.078 -110.159546 14.973144 73 73 73 255 0.625 0.9175
23.061903 -110.159546 -16.409548 73 73 73 255 0.37499997 0.91749996
25.63931 -108.29593 -18.74645 73 73 73 255 0.46250716 0.8448362
33.471756 -106.25 -25.84803 254 254 254 255 0.44830394 0.83562154
-18.75 -125 -12.5 73 73 73 255 0.375 0.325
-18.75 -119.59803 12.5 73 73 73 255 0.625 0.32716078
-18.75 -125 12.5 73 73 73 255 0.625 0.325
106.24999 -106.25 -62.500008 93 93 93 255 0.375 0.75
-106.24999 -106.25 -62.500008 147 147 147 255 0.375 1
-18.75 -125 -12.5 73 73 73 255 0.2 0.5
18.75 -125 -12.5 73 73 73 255 0.375 0.925
18.75 -119.59803 12.5 73 73 73 255 0.625 0.9228393
-18.75 -125 12.5 73 73 73 255 0.8 0.5
18.75 -119.59803 12.5 73 73 73 255 0.79783916 0.75
18.75 -125 12.5 73 73 73 255 0.8 0.75
-106.24999 -106.25 62.500008 183 183 183 255 0.625 1
106.24999 31.862364 19.99278 254 254 254 255 0.5399856 0.5875149
106.32447 -30.394245 19.153856 254 254 254 255 0.5383077 0.66075796
106.24999 -31.862364 19.99278 254 254 254 255 0.5399856 0.6624851
106.32447 30.394245 19.153856 254 254 254 255 0.5383077 0.5892421
106.54697 -28.944588 18.32548 254 254 254 255 0.536651 0.6590525
106.54697 28.944588 18.32548 254 254 254 255 0.536651 0.59094757
106.91468 -27.531624 17.518072 254 254 254 255 0.5350362 0.6573902
106.91468 27.531624 17.518072 254 254 254 255 0.5350362 0.5926099
107.42298 -26.173122 16.741785 254 254 254 255 0.5334836 0.6557919
107.42298 26.173122 16.741785 254 254 254 255 0.5334836 0.5942081
108.06548 -24.886166 16.00638 254 254 254 255 0.5320128 0.6542779
108.06548 24.886166 16.00638 254 254 254 255 0.5320128 0.5957222
108.834114 -23.686937 15.321108 254 254 254 255 0.5306423 0.652867
108.834114 23.686937 15.321108 254 254 254 255 0.5306423 0.59713304
109.7192 -22.59052 14.694585 254 254 254 255 0.52500004 0.64705884
109.7192 22.59052 14.694585 254 254 254 255 0.7075 0.5
110.70961 -21.610703 14.134688 254 254 254 255 0.70571613 0.7690712
109.7192 -22.59052 14.694585 254 254 254 255 0.7075 0.75
110.70961 21.610704 14.134688 254 254 254 255 0.7057162 0.48092866
111.79289 -20.75981 13.648461 254 254 254 255 0.7052828 0.7633987
111.79289 20.75981 13.648461 254 254 254 255 0.70528287 0.4866013
112.95542 -20.048532 13.24202 254 254 254 255 0.7048179 0.7586569
112.95542 20.048532 13.24202 254 254 254 255 0.7048179 0.49134314
114.18258 -19.485825 12.920471 254 254 254 255 0.7043269 0.7549054
114.18258 19.485825 12.920471 254 254 254 255 0.704327 0.49509454
115.45893 -19.078754 12.6878605 254 254 254 255 0.70381635 0.7521916
115.45893 19.078754 12.6878605 254 254 254 255 0.7038164 0.4978083
116.768425 -18.832449 12.547113 254 254 254 255 0.70329267 0.7505497
116.768425 18.832449 12.547113 254 254 254 255 0.70329267 0.49945036
118.094604 -18.75 12.5 254 254 254 255 0.7027621 0.75
118.094604 18.75 -12.5 177 177 177 255 0.375 0.42223787
116.768425 18.832449 12.547113 254 254 254 255 0.6254712 0.42170736
116.768425 18.832144 -12.574477 254 254 254 255 0.37425518 0.42170736
115.45893 19.078754 12.6878605 254 254 254 255 0.6268787 0.42118362
115.45893 19.077532 -12.796968 254 254 254 255 0.37203032 0.4211836
114.18258 19.485825 12.920471 254 254 254 255 0.62920463 0.42067304
114.18258 19.483086 -13.16468 254 254 254 255 0.3683532 0.42067304
112.95542 20.048532 13.24202 254 254 254 255 0.6324202 0.4201822
112.95542 20.043705 -13.672985 254 254 254 255 0.36327016 0.4201822
111.79289 20.75981 13.648461 254 254 254 255 0.6364847 0.41971716
111.79289 20.752335 -14.315492 254 254 254 255 0.35684508 0.41971713
110.70961 21.610704 14.134688 254 254 254 255 0.6413469 0.41928387
110.70961 21.600067 -15.08412 254 254 254 255 0.3491588 0.41928384
109.7192 22.59052 14.694585 254 254 254 255 0.625 0.41750002
109.7192 22.576242 -15.969206 254 254 254 255 0.37499997 0.4175
109.7192 22.576242 -15.969206 254 254 254 255 0.47500002 0.6029412
108.834114 23.66858 -16.959616 254 254 254 255 0.46608078 0.5971546
108.06548 24.863348 -18.042896 254 254 254 255 0.46391422 0.595749
107.42298 26.145517 -19.205423 254 254 254 255 0.46158916 0.5942406
106.91468 27.498968 -20.43258 254 254 254 255 0.45913488 0.5926483
106.54697 28.906677 -21.708931 254 254 254 255 0.4565822 0.5909922
106.32447 30.350943 -23.01843 254 254 254 255 0.4539631 0.58929294
106.24999 31.813602 -24.344604 254 254 254 255 0.4513108 0.5875722
106.32447 -30.350943 -23.018429 254 254 254 255 0.4539632 0.660707
106.24999 -31.813602 -24.344604 254 254 254 255 0.4513108 0.6624278
106.54697 -28.906677 -21.708931 254 254 254 255 0.45658216 0.65900785
106.91468 -27.498968 -20.43258 254 254 254 255 0.45913488 0.65735173
107.42298 -26.145517 -19.205423 254 254 254 255 0.4615892 0.6557594
108.06548 -24.863348 -18.042896 254 254 254 255 0.4639142 0.654251
108.834114 -23.66858 -16.959616 254 254 254 255 0.4660808 0.65284544
109.7192 -22.576242 -15.969206 254 254 254 255 0.47500002 0.64705884
109.7192 -22.59052 14.694585 254 254 254 255 0.625 0.8325
110.70961 -21.600067 -15.08412 254 254 254 255 0.34915882 0.83071613
109.7192 -22.576242 -15.969206 254 254 254 255 0.375 0.8325
110.70961 -21.610703 14.134688 254 254 254 255 0.64134693 0.8307162
111.79289 -20.752335 -14.315492 254 254 254 255 0.35684508 0.83028275
111.79289 -20.75981 13.648461 254 254 254 255 0.6364847 0.83028287
112.95542 -20.043705 -13.672985 254 254 254 255 0.36327016 0.8298178
112.95542 -20.048532 13.24202 254 254 254 255 0.6324202 0.82981783
114.18258 -19.483086 -13.164679 254 254 254 255 0.36835322 0.8293269
114.18258 -19.485825 12.920471 254 254 254 255 0.6292047 0.8293269
115.45893 -19.077532 -12.796968 254 254 254 255 0.37203032 0.8288164
115.45893 -19.078754 12.6878605 254 254 254 255 0.6268786 0.8288164
116.768425 -18.832144 -12.574477 254 254 254 255 0.3742552 0.8282926
116.768425 -18.832449 12.547113 254 254 254 255 0.6254711 0.82829267
118.094604 -18.75 -12.5 251 251 251 255 0.375 0.8277621
118.094604 18.75 -12.5 177 177 177 255 0.2972378 0.5
116.768425 -18.832144 -12.574477 254 254 254 255 0.29670733 0.75054765
118.094604 -18.75 -12.5 251 251 251 255 0.2972378 0.75
116.768425 18.832144 -12.574477 254 254 254 255 0.29670736 0.49945232
115.45893 -19.077532 -12.796968 254 254 254 255 0.29618353 0.75218344
115.45893 19.077532 -12.796968 254 254 254 255 0.29618356 0.49781647
114.18258 -19.483086 -13.164679 254 254 254 255 0.295673 0.75488716
114.18258 19.483086 -13.16468 254 254 254 255 0.295673 0.49511278
112.95542 -20.043705 -13.672985 254 254 254 255 0.29518214 0.7586247
112.95542 20.043705 -13.672985 254 254 254 255 0.29518214 0.4913753
111.79289 -20.752335 -14.315492 254 254 254 255 0.29471713 0.76334894
111.79289 20.752335 -14.315492 254 254 254 255 0.29471713 0.4866511
110.70961 -21.600067 -15.08412 254 254 254 255 0.29428378 0.76900035
110.70961 21.600067 -15.08412 254 254 254 255 0.29428384 0.4809996
109.7192 -22.576242 -15.969206 254 254 254 255 0.29249996 0.74999994
125 -18.75 12.5 73 73 73 255 0.625 0.825
118.094604 -18.75 12.5 254 254 254 255 0.625 0.8277621
125 18.75 -12.5 73 73 73 255 0.29999998 0.5
125 -18.75 -12.5 73 73 73 255 0.29999998 0.75
125 18.75 12.5 73 73 73 255 0.625 0.425
125 18.75 -12.5 73 73 73 255 0.375 0.425
125 18.75 12.5 73 73 73 255 0.70000005 0.5
125 -18.75 12.5 73 73 73 255 0.70000005 0.75
-33.997356 106.25 21.212778 254 254 254 255 0.5424256 0.33500314
32.290195 106.33661 20.237257 254 254 254 255 0.54047453 0.4129885
33.997356 106.25 21.212778 254 254 254 255 0.54242563 0.41499692
-32.290195 106.33661 20.237257 254 254 254 255 0.54047453 0.33701155
30.6045 106.59532 19.274004 254 254 254 255 0.538548 0.41100535
-30.6045 106.59532 19.274004 254 254 254 255 0.538548 0.33899468
28.961473 107.02291 18.33513 254 254 254 255 0.5366703 0.40907237
-28.961473 107.02291 18.33513 254 254 254 255 0.5366703 0.34092772
27.381779 107.613976 17.432447 254 254 254 255 0.5348649 0.4072139
-27.381779 107.613976 17.432446 254 254 254 255 0.5348649 0.34278616
25.885275 108.36109 16.577301 254 254 254 255 0.5331546 0.40545332
-25.885275 108.36109 16.577301 254 254 254 255 0.5331546 0.34454674
24.490786 109.254875 15.780451 254 254 254 255 0.5315609 0.40381274
-24.490786 109.254875 15.780449 254 254 254 255 0.5315609 0.34618735
23.215849 110.28407 15.051914 254 254 254 255 0.52500004 0.39705887
-23.215849 110.28407 15.051914 254 254 254 255 0.7075 0.5
22.076494 111.43574 14.400855 254 254 254 255 0.70542574 0.7721766
23.215849 110.28407 15.051914 254 254 254 255 0.7075 0.75
-22.076494 111.43574 14.400855 254 254 254 255 0.70542574 0.47782338
21.087051 112.695404 13.835458 254 254 254 255 0.7049218 0.7655803
-21.087051 112.695404 13.835458 254 254 254 255 0.70492184 0.48441964
20.259966 114.04722 13.362838 254 254 254 255 0.70438117 0.76006645
-20.259966 114.04722 13.362838 254 254 254 255 0.7043811 0.48993355
19.605633 115.47419 12.988933 254 254 254 255 0.70381033 0.75570416
-19.60563 115.47419 12.988933 254 254 254 255 0.70381033 0.49429578
19.132282 116.95836 12.718448 253 253 253 255 0.7032166 0.7525486
-19.132282 116.95836 12.718447 254 254 254 255 0.7032166 0.49745142
18.845873 118.48107 12.554785 103 103 103 255 0.7026076 0.75063914
-18.845873 118.48107 12.554785 97 97 97 255 0.7026076 0.4993608
18.75 120.02318 12.5 73 73 73 255 0.7019907 0.75
32.23984 106.33661 -24.73107 254 254 254 255 0.45053786 0.41292924
33.94066 106.25 -26.273176 254 254 254 255 0.44745368 0.4149302
30.56042 106.59532 -23.208357 254 254 254 255 0.4535833 0.41095346
28.923502 107.02291 -21.724184 254 254 254 255 0.4565516 0.40902764
27.349676 107.613976 -20.297218 254 254 254 255 0.45940557 0.40717608
25.858742 108.36109 -18.945404 254 254 254 255 0.4621092 0.40542206
24.469439 109.254875 -17.685741 254 254 254 255 0.46462858 0.40378758
23.199242 110.28407 -16.534071 254 254 254 255 0.47500005 0.39705887
23.215849 110.28407 15.051914 254 254 254 255 0.625 0.8325
22.064123 111.43574 -15.504873 254 254 254 255 0.34495127 0.8304257
23.199242 110.28407 -16.534071 254 254 254 255 0.375 0.8325
22.076494 111.43574 14.400855 254 254 254 255 0.6440086 0.83042574
21.07836 112.695404 -14.6110935 254 254 254 255 0.3538891 0.82992184
21.087051 112.695404 13.835458 254 254 254 255 0.6383546 0.82992184
20.254349 114.04722 -13.863974 254 254 254 255 0.36136025 0.8293811
20.259966 114.04722 13.362838 254 254 254 255 0.63362837 0.8293811
19.60245 115.47419 -13.272903 254 254 254 255 0.36727095 0.82881033
19.605633 115.47419 12.988933 254 254 254 255 0.6298893 0.8288103
19.130863 116.95836 -12.845323 252 252 252 255 0.37154675 0.8282166
19.132282 116.95836 12.718448 253 253 253 255 0.6271845 0.8282166
18.845518 118.48107 -12.586603 107 107 107 255 0.374134 0.8276075
18.845873 118.48107 12.554785 103 103 103 255 0.62554795 0.82760763
18.75 120.02318 -12.5 73 73 73 255 0.375 0.8269907
-32.23984 106.33661 -24.73107 254 254 254 255 0.45053786 0.33707073
-33.94066 106.25 -26.273176 254 254 254 255 0.4474537 0.33506984
-30.56042 106.59532 -23.208357 254 254 254 255 0.45358324 0.33904654
-28.923502 107.02291 -21.724184 254 254 254 255 0.45655167 0.34097236
-27.349676 107.613976 -20.297218 254 254 254 255 0.4594055 0.3428239
-25.858742 108.36109 -18.945406 254 254 254 255 0.46210915 0.34457794
-24.469439 109.254875 -17.685741 254 254 254 255 0.46462852 0.34621245
-23.199242 110.28407 -16.534071 254 254 254 255 0.47500002 0.3529412
23.199242 110.28407 -16.534071 254 254 254 255 0.29249996 0.74999994
-22.064123 111.43574 -15.504873 254 254 254 255 0.2945743 0.47790587
-23.199242 110.28407 -16.534071 254 254 254 255 0.2925 0.5
22.064123 111.43574 -15.504873 254 254 254 255 0.29457423 0.77209413
-21.07836 112.695404 -14.6110935 254 254 254 255 0.29507816 0.4844776
21.07836 112.695404 -14.6110935 254 254 254 255 0.29507813 0.7655224
-20.254349 114.04722 -13.863974 254 254 254 255 0.2956189 0.48997104
20.254349 114.04722 -13.863974 254 254 254 255 0.29561883 0.76002896
-19.60245 115.47419 -13.272904 254 254 254 255 0.29618964 0.494317
19.60245 115.47419 -13.272903 254 254 254 255 0.29618964 0.7556829
-19.130863 116.95836 -12.845323 251 251 251 255 0.29678333 0.4974609
19.130863 116.95836 -12.845323 252 252 252 255 0.29678336 0.75253904
-18.845518 118.48107 -12.586603 90 90 90 255 0.29739243 0.49936324
18.845518 118.48107 -12.586603 107 107 107 255 0.2973924 0.7506368
-18.75 120.02318 -12.5 73 73 73 255 0.29800925 0.5
-18.75 120.02318 -12.5 73 73 73 255 0.375 0.42300928
-18.845873 118.48107 12.554785 97 97 97 255 0.6255479 0.42239243
-18.845518 118.48107 -12.586603 90 90 90 255 0.37413394 0.42239243
-19.132282 116.95836 12.718447 254 254 254 255 0.62718445 0.42178333
-19.130863 116.95836 -12.845323 251 251 251 255 0.37154675 0.42178336
-19.60563 115.47419 12.988933 254 254 254 255 0.6298893 0.42118967
-19.60245 115.47419 -13.272904 254 254 254 255 0.36727095 0.42118967
-20.259966 114.04722 13.362838 254 254 254 255 0.63362837 0.4206189
-20.254349 114.04722 -13.863974 254 254 254 255 0.36136025 0.4206189
-21.087051 112.695404 13.835458 254 254 254 255 0.6383546 0.42007822
-21.07836 112.695404 -14.6110935 254 254 254 255 0.35388908 0.42007816
-22.076494 111.43574 14.400855 254 254 254 255 0.6440086 0.41957435
-22.064123 111.43574 -15.504873 254 254 254 255 0.34495124 0.41957432
-23.215849 110.28407 15.051914 254 254 254 255 0.625 0.41750002
-23.199242 110.28407 -16.534071 254 254 254 255 0.37499997 0.4175
18.75 125 -12.5 73 73 73 255 0.29999998 0.75
18.75 120.02318 -12.5 73 73 73 255 0.29800925 0.75
-18.75 125 12.5 73 73 73 255 0.625 0.425
-18.75 125 -12.5 73 73 73 255 0.375 0.425
18.75 125 12.5 73 73 73 255 0.625 0.825
18.75 120.02318 12.5 73 73 73 255 0.625 0.8269907
18.75 125 12.5 73 73 73 255 0.70000005 0.75
-18.75 120.02318 12.5 73 73 73 255 0.7019908 0.5
-18.75 125 12.5 73 73 73 255 0.70000005 0.5
14.462632 -16.196182 41.723442 44 28 98 255 0.625 0
14.462632 16.196182 -41.723442 44 28 98 255 0.375 0.25
14.462632 -16.196182 -41.723442 22 14 51 255 0.375 0
14.462632 16.196182 41.723442 44 28 98 255 0.625 0.25
-14.462632 16.196182 -41.723442 44 28 98 255 0.375 0.5
-14.462632 16.196182 41.723442 59 38 129 255 0.625 0.5
-14.462632 -16.196182 -41.723442 44 28 98 255 0.375 0.75
-14.462632 -16.196182 41.723442 44 28 98 255 0.625 0.75
14.462632 -16.196182 -41.723442 22 14 51 255 0.375 1
14.462632 -16.196182 -41.723442 22 14 51 255 0.125 0.75
14.462632 16.196182 -41.723442 44 28 98 255 0.125 0.5
14.462632 16.196182 41.723442 44 28 98 255 0.875 0.5
-125 18.75 -12.5 73 73 73 255 0.4875 0.14375
-125 -18.75 12.5 73 73 73 255 0.5125 0.10625
18.75 125 -12.5 73 73 73 255 0.4875 0.39375
-18.75 125 12.5 73 73 73 255 0.5125 0.35625
125 -18.75 -12.5 73 73 73 255 0.4875 0.64374995
125 18.75 12.5 73 73 73 255 0.5125 0.60625
-18.75 -125 -12.5 73 73 73 255 0.4875 0.89374995
18.75 -125 12.5 73 73 73 255 0.5125 0.85625
-125 -125 125 32 32 32 255 0.875 0.75
-106.24999 -106.25 62.500008 183 183 183 255 0.875 0.75
-109.9302 -22.824108 14.828064 254 254 254 255 0.52500004 0.102941185
-118.815 -18.75 12.5 254 254 254 255 0.797526 0.75
-125 -18.75 12.5 73 73 73 255 0.625 0.925
-106.24999 -106.25 62.500008 183 183 183 255 0.625 0
23.078 -110.159546 14.973144 73 73 73 255 0.52500004 0.8529413
23.061903 -110.159546 -16.409548 73 73 73 255 0.2075 0.75
18.75 -125 -12.5 73 73 73 255 0.2 0.75
18.75 -125 12.5 73 73 73 255 0.625 0.925
109.7192 22.59052 14.694585 254 254 254 255 0.52500004 0.6029412
118.094604 18.75 12.5 111 111 111 255 0.7027621 0.5
118.094604 18.75 12.5 111 111 111 255 0.625 0.42223787
109.7192 22.576242 -15.969206 254 254 254 255 0.2925 0.5
125 -18.75 -12.5 73 73 73 255 0.375 0.825
-23.215849 110.28407 15.051914 254 254 254 255 0.52500004 0.3529412
-18.75 120.02318 12.5 73 73 73 255 0.625 0.42300928
-18.75 125 -12.5 73 73 73 255 0.29999998 0.5
18.75 125 -12.5 73 73 73 255 0.375 0.825
14.462632 -16.196182 41.723442 44 28 98 255 0.625 1
14.462632 -16.196182 41.723442 44 28 98 255 0.875 0.75
3 0 1 2
3 3 4 5
3 6 7 8
3 0 2 9
3 10 6 8
3 11 12 13
3 11 13 14
3 15 16 17
3 6 18 19
3 20 13 8
3 21 22 23
3 24 25 26
3 27 28 29
3 30 31 28
3 32 33 31
3 34 35 33
3 35 36 37
3 36 38 37
3 39 40 38
3 41 42 43
3 44 45 42
3 46 47 45
3 48 49 47
3 50 51 49
3 52 53 51
3 54 55 53
3 56 57 58
3 58 59 60
3 60 61 62
3 62 63 64
3 64 65 66
3 66 67 68
3 68 69 70
3 71 39 72
3 72 36 73
3 73 74 75
3 75 34 76
3 76 32 77
3 77 30 78
3 78 27 79
3 29 80 81
3 28 82 80
3 31 83 82
3 33 84 83
3 35 85 84
3 37 86 85
3 38 87 86
3 88 89 90
3 91 92 89
3 93 94 92
3 95 96 94
3 97 98 96
3 99 100 98
3 101 102 100
3 81 78 79
3 80 77 78
3 82 76 77
3 83 75 76
3 84 73 75
3 73 86 72
3 86 71 72
3 103 104 105
3 106 107 104
3 108 109 107
3 110 111 109
3 112 113 111
3 114 115 113
3 116 117 115
3 118 119 56
3 120 121 79
3 122 123 124
3 125 126 127
3 55 128 129
3 130 27 29
3 131 132 133
3 134 135 132
3 136 137 135
3 138 139 137
3 140 141 139
3 142 143 141
3 144 145 143
3 146 147 148
3 149 150 147
3 151 152 150
3 153 154 152
3 155 156 154
3 157 158 156
3 159 160 158
3 133 161 162
3 132 163 161
3 135 164 163
3 137 165 164
3 139 166 165
3 141 167 166
3 143 168 167
3 169 170 171
3 172 173 170
3 174 175 173
3 176 177 175
3 178 179 177
3 180 181 179
3 182 183 181
3 184 185 186
3 187 188 185
3 189 190 188
3 191 192 190
3 193 194 192
3 195 196 194
3 197 198 196
3 199 167 168
3 200 166 167
3 166 201 165
3 201 164 165
3 202 163 164
3 203 161 163
3 204 162 161
3 205 206 207
3 207 208 209
3 209 210 211
3 211 212 213
3 213 214 215
3 215 216 217
3 217 218 219
3 199 144 200
3 200 142 220
3 220 140 201
3 201 138 202
3 202 136 203
3 203 134 204
3 204 131 221
3 222 223 224
3 225 226 221
3 227 184 186
3 228 229 205
3 230 231 232
3 233 131 133
3 234 235 236
3 237 238 235
3 239 240 238
3 241 242 240
3 243 244 242
3 245 246 244
3 247 248 246
3 249 250 251
3 252 253 250
3 254 255 253
3 256 257 255
3 258 259 257
3 260 261 259
3 262 263 261
3 264 265 266
3 266 267 268
3 268 269 270
3 270 271 272
3 272 273 274
3 274 275 276
3 276 277 278
3 279 247 280
3 280 245 281
3 281 243 282
3 282 241 283
3 283 239 284
3 284 237 285
3 285 234 286
3 236 287 288
3 235 289 287
3 238 290 289
3 240 291 290
3 242 292 291
3 244 293 292
3 246 294 293
3 295 296 297
3 298 299 296
3 300 301 299
3 302 303 301
3 304 305 303
3 306 307 305
3 308 309 307
3 310 311 312
3 313 314 311
3 315 316 314
3 317 318 316
3 319 320 318
3 321 322 320
3 323 324 322
3 279 293 294
3 280 292 293
3 281 291 292
3 282 290 291
3 283 289 290
3 284 287 289
3 285 288 287
3 325 309 326
3 22 225 286
3 327 312 328
3 329 264 330
3 263 331 332
3 24 234 236
3 333 334 335
3 336 337 334
3 338 339 337
3 340 341 339
3 342 343 341
3 344 345 343
3 346 347 345
3 348 349 350
3 351 352 349
3 353 354 352
3 355 356 354
3 357 358 356
3 359 360 358
3 361 362 360
3 335 363 364
3 334 365 363
3 337 366 365
3 339 367 366
3 341 368 367
3 343 369 368
3 345 370 369
3 371 372 373
3 374 375 372
3 376 377 375
3 378 379 377
3 380 381 379
3 382 383 381
3 384 385 383
3 364 386 387
3 363 388 386
3 365 389 388
3 366 390 389
3 367 391 390
3 368 392 391
3 369 393 392
3 394 395 396
3 397 398 395
3 399 400 398
3 401 402 400
3 403 404 402
3 405 406 404
3 407 408 406
3 409 410 411
3 411 412 413
3 413 414 415
3 415 416 417
3 417 418 419
3 419 420 421
3 421 422 423
3 393 346 392
3 392 344 391
3 391 342 390
3 390 340 389
3 389 338 388
3 388 336 386
3 386 333 387
3 424 408 425
3 121 22 387
3 426 409 427
3 428 385 429
3 430 431 432
3 26 333 335
3 433 434 435
3 436 437 434
3 438 439 437
3 440 441 439
3 437 442 443
3 444 440 438
3 0 445 1
3 5 445 0
3 4 2 1
3 4 1 446
3 5 0 3
3 4 446 5
3 6 447 7
3 447 6 9
3 6 0 9
3 2 8 7
3 2 7 448
3 2 448 9
3 10 449 11
3 8 13 12
3 8 12 450
3 10 11 6
3 8 450 10
3 11 449 12
3 14 451 15
3 13 17 16
3 13 16 452
3 14 15 11
3 13 452 14
3 15 451 16
3 6 11 18
3 20 453 13
3 21 225 22
3 24 454 25
3 27 30 28
3 30 32 31
3 32 34 33
3 34 74 35
3 35 74 36
3 36 39 38
3 39 455 40
3 41 44 42
3 44 46 45
3 46 48 47
3 48 50 49
3 50 52 51
3 52 54 53
3 54 456 55
3 56 119 57
3 58 57 59
3 60 59 61
3 62 61 63
3 64 63 65
3 66 65 67
3 68 67 69
3 71 455 39
3 72 39 36
3 73 36 74
3 75 74 34
3 76 34 32
3 77 32 30
3 78 30 27
3 29 28 80
3 28 31 82
3 31 33 83
3 33 35 84
3 35 37 85
3 37 38 86
3 38 40 87
3 88 91 89
3 91 93 92
3 93 95 94
3 95 97 96
3 97 99 98
3 99 101 100
3 101 126 102
3 81 80 78
3 80 82 77
3 82 83 76
3 83 84 75
3 84 85 73
3 73 85 86
3 86 87 71
3 103 106 104
3 106 108 107
3 108 110 109
3 110 112 111
3 112 114 113
3 114 116 115
3 116 123 117
3 118 457 119
3 79 27 120
3 27 458 120
3 121 130 29
3 121 29 81
3 121 81 79
3 122 117 123
3 125 102 126
3 55 456 128
3 130 458 27
3 131 134 132
3 134 136 135
3 136 138 137
3 138 140 139
3 140 142 141
3 142 144 143
3 144 459 145
3 146 149 147
3 149 151 150
3 151 153 152
3 153 155 154
3 155 157 156
3 157 159 158
3 159 231 160
3 133 132 161
3 132 135 163
3 135 137 164
3 137 139 165
3 139 141 166
3 141 143 167
3 143 145 168
3 169 172 170
3 172 174 173
3 174 176 175
3 176 178 177
3 178 180 179
3 180 182 181
3 182 223 183
3 184 187 185
3 187 189 188
3 189 191 190
3 191 193 192
3 193 195 194
3 195 197 196
3 197 460 198
3 199 200 167
3 200 220 166
3 166 220 201
3 201 202 164
3 202 203 163
3 203 204 161
3 204 221 162
3 205 229 206
3 207 206 208
3 209 208 210
3 211 210 212
3 213 212 214
3 215 214 216
3 217 216 218
3 199 459 144
3 200 144 142
3 220 142 140
3 201 140 138
3 202 138 136
3 203 136 134
3 204 134 131
3 222 183 223
3 131 24 225
3 226 233 133
3 226 133 162
3 221 131 225
3 226 162 221
3 227 461 184
3 228 462 229
3 230 160 231
3 233 24 131
3 234 237 235
3 237 239 238
3 239 241 240
3 241 243 242
3 243 245 244
3 245 247 246
3 247 463 248
3 249 252 250
3 252 254 253
3 254 256 255
3 256 258 257
3 258 260 259
3 260 262 261
3 262 464 263
3 264 465 265
3 266 265 267
3 268 267 269
3 270 269 271
3 272 271 273
3 274 273 275
3 276 275 277
3 279 463 247
3 280 247 245
3 281 245 243
3 282 243 241
3 283 241 239
3 284 239 237
3 285 237 234
3 236 235 287
3 235 238 289
3 238 240 290
3 240 242 291
3 242 244 292
3 244 246 293
3 246 248 294
3 295 298 296
3 298 300 299
3 300 302 301
3 302 304 303
3 304 306 305
3 306 308 307
3 308 326 309
3 310 313 311
3 313 315 314
3 315 317 316
3 317 319 318
3 319 321 320
3 321 323 322
3 323 466 324
3 279 280 293
3 280 281 292
3 281 282 291
3 282 283 290
3 283 284 289
3 284 285 287
3 285 286 288
3 325 467 309
3 286 234 22
3 234 26 22
3 225 24 236
3 225 236 288
3 225 288 286
3 327 310 312
3 329 465 264
3 263 464 331
3 24 26 234
3 333 336 334
3 336 338 337
3 338 340 339
3 340 342 341
3 342 344 343
3 344 346 345
3 346 468 347
3 348 351 349
3 351 353 352
3 353 355 354
3 355 357 356
3 357 359 358
3 359 361 360
3 361 431 362
3 335 334 363
3 334 337 365
3 337 339 366
3 339 341 367
3 341 343 368
3 343 345 369
3 345 347 370
3 371 374 372
3 374 376 375
3 376 378 377
3 378 380 379
3 380 382 381
3 382 384 383
3 384 429 385
3 364 363 386
3 363 365 388
3 365 366 389
3 366 367 390
3 367 368 391
3 368 369 392
3 369 370 393
3 394 397 395
3 397 399 398
3 399 401 400
3 401 403 402
3 403 405 404
3 405 407 406
3 407 425 408
3 409 469 410
3 411 410 412
3 413 412 414
3 415 414 416
3 417 416 418
3 419 418 420
3 421 420 422
3 393 468 346
3 392 346 344
3 391 344 342
3 390 342 340
3 389 340 338
3 388 338 336
3 386 336 333
3 424 470 408
3 333 130 121
3 22 26 335
3 22 335 364
3 387 333 121
3 22 364 387
3 426 469 409
3 428 471 385
3 430 362 431
3 26 130 333
3 433 436 434
3 436 438 437
3 438 440 439
3 440 472 441
3 437 439 442
3 444 473 440
