ply
format ascii 1.0
comment Created in Blender version 5.1.2
element vertex 14
property float x
property float y
property float z
property uchar red
property uchar green
property uchar blue
property uchar alpha
property float s
property float t
element face 12
property list uchar uint vertex_indices
end_header
-50 -50 25 93 82 72 255 0.625 0
-50 50 -25 55 53 63 255 0.375 0.25
-50 -50 -25 59 55 64 255 0.375 0
-50 50 25 93 82 72 255 0.625 0.25
50 50 -25 55 53 63 255 0.375 0.5
50 50 25 93 82 72 255 0.625 0.5
50 -50 -25 53 52 62 255 0.375 0.75
50 -50 25 93 82 72 255 0.625 0.75
-50 -50 -25 59 55 64 255 0.375 1
-50 -50 -25 59 55 64 255 0.125 0.75
-50 50 -25 55 53 63 255 0.125 0.5
-50 50 25 93 82 72 255 0.875 0.5
-50 -50 25 93 82 72 255 0.625 1
-50 -50 25 93 82 72 255 0.875 0.75
3 0 1 2
3 3 4 1
3 5 6 4
3 7 8 6
3 4 9 10
3 11 7 5
3 0 3 1
3 3 5 4
3 5 7 6
3 7 12 8
3 4 6 9
3 11 13 7
