ply
format ascii 1.0
comment Created in Blender version 5.1.1
element vertex 126
property float x
property float y
property float z
property uchar red
property uchar green
property uchar blue
property uchar alpha
property float s
property float t
element face 54
property list uchar uint vertex_indices
end_header
-100 -100 -1.5 97 76 13 255 0.375 0
-100 -100 -0.5 108 134 73 255 0.625 0
-100 100 -0.5 112 133 88 255 0.625 0.25
-100 100 -1.5 97 76 13 255 0.375 0.25
100 100 -0.5 118 131 107 255 0.625 0.5
100 100 -1.5 97 76 13 255 0.375 0.5
100 -100 -0.5 116 130 94 255 0.625 0.75
100 -100 -1.5 97 76 13 255 0.375 0.75
-100 -100 -0.5 108 134 73 255 0.625 1
-100 -100 -1.5 97 76 13 255 0.375 1
-100 100 -1.5 97 76 13 255 0.125 0.5
-100 -100 -1.5 97 76 13 255 0.125 0.75
-100 100 -0.5 112 133 88 255 0.875 0.5
-100 -100 -0.5 108 134 73 255 0.875 0.75
7.106526 -3.102871 0 254 254 254 255 0.375 0
7.106526 -3.102871 10 121 91 90 255 0.625 0
6.897129 2.893474 10 121 91 90 255 0.625 0.25
6.897129 2.893474 0 173 170 171 255 0.375 0.25
12.893475 3.102871 10 121 91 90 255 0.625 0.5
12.893475 3.102871 0 173 170 171 255 0.375 0.5
13.102871 -2.893474 10 121 91 90 255 0.625 0.75
13.102871 -2.893474 0 173 170 171 255 0.375 0.75
7.106526 -3.102871 10 121 91 90 255 0.625 1
7.106526 -3.102871 0 254 254 254 255 0.375 1
6.897129 2.893474 0 173 170 171 255 0.125 0.5
7.106526 -3.102871 0 254 254 254 255 0.125 0.75
6.897129 2.893474 10 121 91 90 255 0.875 0.5
7.106526 -3.102871 10 121 91 90 255 0.875 0.75
-16 -5.5 0 173 170 171 255 0.375 0
-16 -5.5 10 121 91 90 255 0.625 0
-16 5.5 10 121 91 90 255 0.625 0.25
-16 5.5 0 173 170 171 255 0.375 0.25
-8 5.5 10 121 91 90 255 0.625 0.5
-8 5.5 0 173 170 171 255 0.375 0.5
-8 -5.5 10 121 91 90 255 0.625 0.75
-8 -5.5 0 173 170 171 255 0.375 0.75
-16 -5.5 10 121 91 90 255 0.625 1
-16 -5.5 0 173 170 171 255 0.375 1
-16 5.5 0 173 170 171 255 0.125 0.5
-16 -5.5 0 173 170 171 255 0.125 0.75
-16 5.5 10 121 91 90 255 0.875 0.5
-16 -5.5 10 121 91 90 255 0.875 0.75
8.5 -5.4 0 254 254 254 255 0.375 0
8.5 -5.4 5 121 91 90 255 0.625 0
8.5 -2.4 5 121 91 90 255 0.625 0.25
8.5 -2.4 0 254 254 254 255 0.375 0.25
11.5 -2.4 5 121 91 90 255 0.625 0.5
11.5 -2.4 0 173 170 171 255 0.375 0.5
11.5 -5.4 5 121 91 90 255 0.625 0.75
11.5 -5.4 0 173 170 171 255 0.375 0.75
8.5 -5.4 5 121 91 90 255 0.625 1
8.5 -5.4 0 254 254 254 255 0.375 1
8.5 -2.4 0 254 254 254 255 0.125 0.5
8.5 -5.4 0 254 254 254 255 0.125 0.75
8.5 -2.4 5 121 91 90 255 0.875 0.5
8.5 -5.4 5 121 91 90 255 0.875 0.75
2.9500008 -11.889999 0 173 170 171 255 0.375 0
2.9500008 -11.889999 5 121 91 90 255 0.625 0
2.9500008 -4.8899994 5 96 88 70 255 0.625 0.25
2.9500008 -4.8899994 0 173 170 171 255 0.375 0.25
22.95 -4.8899994 5 121 91 90 255 0.625 0.5
22.95 -4.8899994 0 173 170 171 255 0.375 0.5
22.95 -11.889999 5 121 91 90 255 0.625 0.75
22.95 -11.889999 0 173 170 171 255 0.375 0.75
2.9500008 -11.889999 5 121 91 90 255 0.625 1
2.9500008 -11.889999 0 173 170 171 255 0.375 1
2.9500008 -4.8899994 0 173 170 171 255 0.125 0.5
2.9500008 -11.889999 0 173 170 171 255 0.125 0.75
2.9500008 -4.8899994 5 96 88 70 255 0.875 0.5
2.9500008 -11.889999 5 121 91 90 255 0.875 0.75
-5.65 -9.25 0 173 170 171 255 0.375 0
-5.65 -9.25 5 121 91 90 255 0.625 0
-5.65 -4.2499995 5 96 88 70 255 0.625 0.25
-5.65 -4.2499995 0 173 170 171 255 0.375 0.25
3.35 -4.2499995 5 96 88 70 255 0.625 0.5
3.35 -4.2499995 0 173 170 171 255 0.375 0.5
3.35 -9.25 5 121 91 90 255 0.625 0.75
3.35 -9.25 0 173 170 171 255 0.375 0.75
-5.65 -9.25 5 121 91 90 255 0.625 1
-5.65 -9.25 0 173 170 171 255 0.375 1
-5.65 -4.2499995 0 173 170 171 255 0.125 0.5
-5.65 -9.25 0 173 170 171 255 0.125 0.75
-5.65 -4.2499995 5 96 88 70 255 0.875 0.5
-5.65 -9.25 5 121 91 90 255 0.875 0.75
-17.39 5.3500004 0 173 170 171 255 0.375 0
-17.39 5.3500004 5 121 91 90 255 0.625 0
-17.39 15.35 5 121 91 90 255 0.625 0.25
-17.39 15.35 0 173 170 171 255 0.375 0.25
-12.389999 15.35 5 133 109 109 255 0.625 0.5
-12.389999 15.35 0 173 170 171 255 0.375 0.5
-12.389999 5.3500004 5 121 91 90 255 0.625 0.75
-12.389999 5.3500004 0 254 254 254 255 0.375 0.75
-17.39 5.3500004 5 121 91 90 255 0.625 1
-17.39 5.3500004 0 173 170 171 255 0.375 1
-17.39 15.35 0 173 170 171 255 0.125 0.5
-17.39 5.3500004 0 173 170 171 255 0.125 0.75
-17.39 15.35 5 121 91 90 255 0.875 0.5
-17.39 5.3500004 5 121 91 90 255 0.875 0.75
5.2099996 6.2299986 0 173 170 171 255 0.375 0
5.2099996 6.2299986 10 123 93 92 255 0.625 0
5.2099996 20.75 10 162 144 144 255 0.625 0.25
5.2099996 20.75 0 173 170 171 255 0.375 0.25
15.41 20.75 10 121 91 90 255 0.625 0.5
15.41 20.75 0 173 170 171 255 0.375 0.5
15.41 6.2299986 10 121 91 90 255 0.625 0.75
15.41 6.2299986 0 173 170 171 255 0.375 0.75
5.2099996 6.2299986 10 123 93 92 255 0.625 1
5.2099996 6.2299986 0 173 170 171 255 0.375 1
5.2099996 20.75 0 173 170 171 255 0.125 0.5
5.2099996 6.2299986 0 173 170 171 255 0.125 0.75
5.2099996 20.75 10 162 144 144 255 0.875 0.5
5.2099996 6.2299986 10 123 93 92 255 0.875 0.75
-10.05 8.03 0 173 170 171 255 0.375 0
-10.05 8.03 10 121 91 90 255 0.625 0
-10.05 15.03 10 121 91 90 255 0.625 0.25
-10.05 15.03 0 173 170 171 255 0.375 0.25
5.95 15.03 10 96 88 70 255 0.625 0.5
5.95 15.03 0 173 170 171 255 0.375 0.5
5.95 8.03 10 121 91 90 255 0.625 0.75
5.95 8.03 0 173 170 171 255 0.375 0.75
-10.05 8.03 10 121 91 90 255 0.625 1
-10.05 8.03 0 173 170 171 255 0.375 1
-10.05 15.03 0 173 170 171 255 0.125 0.5
-10.05 8.03 0 173 170 171 255 0.125 0.75
-10.05 15.03 10 121 91 90 255 0.875 0.5
-10.05 8.03 10 121 91 90 255 0.875 0.75
4 0 1 2 3
4 3 2 4 5
4 5 4 6 7
4 7 6 8 9
4 10 5 7 11
4 4 12 13 6
4 14 15 16 17
4 17 16 18 19
4 19 18 20 21
4 21 20 22 23
4 24 19 21 25
4 18 26 27 20
4 28 29 30 31
4 31 30 32 33
4 33 32 34 35
4 35 34 36 37
4 38 33 35 39
4 32 40 41 34
4 42 43 44 45
4 45 44 46 47
4 47 46 48 49
4 49 48 50 51
4 52 47 49 53
4 46 54 55 48
4 56 57 58 59
4 59 58 60 61
4 61 60 62 63
4 63 62 64 65
4 66 61 63 67
4 60 68 69 62
4 70 71 72 73
4 73 72 74 75
4 75 74 76 77
4 77 76 78 79
4 80 75 77 81
4 74 82 83 76
4 84 85 86 87
4 87 86 88 89
4 89 88 90 91
4 91 90 92 93
4 94 89 91 95
4 88 96 97 90
4 98 99 100 101
4 101 100 102 103
4 103 102 104 105
4 105 104 106 107
4 108 103 105 109
4 102 110 111 104
4 112 113 114 115
4 115 114 116 117
4 117 116 118 119
4 119 118 120 121
4 122 117 119 123
4 116 124 125 118
