ply
format ascii 1.0
comment Created in Blender version 5.1.1
element vertex 126
property float x
property float y
property float z
property uchar red
property uchar green
property uchar blue
property uchar alpha
property float s
property float t
element face 108
property list uchar uint vertex_indices
end_header
-100 -100 -0.5 173 159 127 255 0.625 0
-100 100 -1.5 173 159 127 255 0.375 0.25
-100 -100 -1.5 173 159 127 255 0.375 0
-100 100 -0.5 173 159 127 255 0.625 0.25
100 100 -1.5 173 159 127 255 0.375 0.5
100 100 -0.5 173 159 127 255 0.625 0.5
100 -100 -1.5 173 159 127 255 0.375 0.75
100 -100 -0.5 173 159 127 255 0.625 0.75
-100 -100 -1.5 173 159 127 255 0.375 1
-100 -100 -1.5 173 159 127 255 0.125 0.75
-100 100 -1.5 173 159 127 255 0.125 0.5
-100 100 -0.5 173 159 127 255 0.875 0.5
7.106526 -3.102871 10 121 91 90 255 0.625 0
6.897129 2.893474 0 173 170 171 255 0.375 0.25
7.106526 -3.102871 0 254 254 254 255 0.375 0
6.897129 2.893474 10 121 91 90 255 0.625 0.25
12.893475 3.102871 0 173 170 171 255 0.375 0.5
12.893475 3.102871 10 121 91 90 255 0.625 0.5
13.102871 -2.893474 0 173 170 171 255 0.375 0.75
13.102871 -2.893474 10 121 91 90 255 0.625 0.75
7.106526 -3.102871 0 254 254 254 255 0.375 1
7.106526 -3.102871 0 254 254 254 255 0.125 0.75
6.897129 2.893474 0 173 170 171 255 0.125 0.5
6.897129 2.893474 10 121 91 90 255 0.875 0.5
-16 -5.5 10 121 91 90 255 0.625 0
-16 5.5 0 173 170 171 255 0.375 0.25
-16 -5.5 0 173 170 171 255 0.375 0
-16 5.5 10 121 91 90 255 0.625 0.25
-8 5.5 0 173 170 171 255 0.375 0.5
-8 5.5 10 121 91 90 255 0.625 0.5
-8 -5.5 0 173 170 171 255 0.375 0.75
-8 -5.5 10 121 91 90 255 0.625 0.75
-16 -5.5 0 173 170 171 255 0.375 1
-16 -5.5 0 173 170 171 255 0.125 0.75
-16 5.5 0 173 170 171 255 0.125 0.5
-16 5.5 10 121 91 90 255 0.875 0.5
8.5 -5.4 5 121 91 90 255 0.625 0
8.5 -2.4 0 254 254 254 255 0.375 0.25
8.5 -5.4 0 254 254 254 255 0.375 0
8.5 -2.4 5 121 91 90 255 0.625 0.25
11.5 -2.4 0 173 170 171 255 0.375 0.5
11.5 -2.4 5 121 91 90 255 0.625 0.5
11.5 -5.4 0 173 170 171 255 0.375 0.75
11.5 -5.4 5 121 91 90 255 0.625 0.75
8.5 -5.4 0 254 254 254 255 0.375 1
8.5 -5.4 0 254 254 254 255 0.125 0.75
8.5 -2.4 0 254 254 254 255 0.125 0.5
8.5 -2.4 5 121 91 90 255 0.875 0.5
2.9500008 -11.889999 5 121 91 90 255 0.625 0
2.9500008 -4.8899994 0 173 170 171 255 0.375 0.25
2.9500008 -11.889999 0 173 170 171 255 0.375 0
2.9500008 -4.8899994 5 96 88 70 255 0.625 0.25
22.95 -4.8899994 0 173 170 171 255 0.375 0.5
22.95 -4.8899994 5 121 91 90 255 0.625 0.5
22.95 -11.889999 0 173 170 171 255 0.375 0.75
22.95 -11.889999 5 121 91 90 255 0.625 0.75
2.9500008 -11.889999 0 173 170 171 255 0.375 1
2.9500008 -11.889999 0 173 170 171 255 0.125 0.75
2.9500008 -4.8899994 0 173 170 171 255 0.125 0.5
2.9500008 -4.8899994 5 96 88 70 255 0.875 0.5
-5.65 -9.25 5 121 91 90 255 0.625 0
-5.65 -4.2499995 0 173 170 171 255 0.375 0.25
-5.65 -9.25 0 173 170 171 255 0.375 0
-5.65 -4.2499995 5 96 88 70 255 0.625 0.25
3.35 -4.2499995 0 173 170 171 255 0.375 0.5
3.35 -4.2499995 5 96 88 70 255 0.625 0.5
3.35 -9.25 0 173 170 171 255 0.375 0.75
3.35 -9.25 5 121 91 90 255 0.625 0.75
-5.65 -9.25 0 173 170 171 255 0.375 1
-5.65 -9.25 0 173 170 171 255 0.125 0.75
-5.65 -4.2499995 0 173 170 171 255 0.125 0.5
-5.65 -4.2499995 5 96 88 70 255 0.875 0.5
-17.39 5.3500004 5 121 91 90 255 0.625 0
-17.39 15.35 0 173 170 171 255 0.375 0.25
-17.39 5.3500004 0 173 170 171 255 0.375 0
-17.39 15.35 5 121 91 90 255 0.625 0.25
-12.389999 15.35 0 173 170 171 255 0.375 0.5
-12.389999 15.35 5 133 109 109 255 0.625 0.5
-12.389999 5.3500004 0 254 254 254 255 0.375 0.75
-12.389999 5.3500004 5 121 91 90 255 0.625 0.75
-17.39 5.3500004 0 173 170 171 255 0.375 1
-17.39 5.3500004 0 173 170 171 255 0.125 0.75
-17.39 15.35 0 173 170 171 255 0.125 0.5
-17.39 15.35 5 121 91 90 255 0.875 0.5
5.2099996 6.2299986 10 123 93 92 255 0.625 0
5.2099996 20.75 0 173 170 171 255 0.375 0.25
5.2099996 6.2299986 0 173 170 171 255 0.375 0
5.2099996 20.75 10 162 144 144 255 0.625 0.25
15.41 20.75 0 173 170 171 255 0.375 0.5
15.41 20.75 10 121 91 90 255 0.625 0.5
15.41 6.2299986 0 173 170 171 255 0.375 0.75
15.41 6.2299986 10 121 91 90 255 0.625 0.75
5.2099996 6.2299986 0 173 170 171 255 0.375 1
5.2099996 6.2299986 0 173 170 171 255 0.125 0.75
5.2099996 20.75 0 173 170 171 255 0.125 0.5
5.2099996 20.75 10 162 144 144 255 0.875 0.5
-10.05 8.03 10 121 91 90 255 0.625 0
-10.05 15.03 0 173 170 171 255 0.375 0.25
-10.05 8.03 0 173 170 171 255 0.375 0
-10.05 15.03 10 121 91 90 255 0.625 0.25
5.95 15.03 0 173 170 171 255 0.375 0.5
5.95 15.03 10 96 88 70 255 0.625 0.5
5.95 8.03 0 173 170 171 255 0.375 0.75
5.95 8.03 10 121 91 90 255 0.625 0.75
-10.05 8.03 0 173 170 171 255 0.375 1
-10.05 8.03 0 173 170 171 255 0.125 0.75
-10.05 15.03 0 173 170 171 255 0.125 0.5
-10.05 15.03 10 121 91 90 255 0.875 0.5
-100 -100 -0.5 173 159 127 255 0.625 1
-100 -100 -0.5 173 159 127 255 0.875 0.75
7.106526 -3.102871 10 121 91 90 255 0.625 1
7.106526 -3.102871 10 121 91 90 255 0.875 0.75
-16 -5.5 10 121 91 90 255 0.625 1
-16 -5.5 10 121 91 90 255 0.875 0.75
8.5 -5.4 5 121 91 90 255 0.625 1
8.5 -5.4 5 121 91 90 255 0.875 0.75
2.9500008 -11.889999 5 121 91 90 255 0.625 1
2.9500008 -11.889999 5 121 91 90 255 0.875 0.75
-5.65 -9.25 5 121 91 90 255 0.625 1
-5.65 -9.25 5 121 91 90 255 0.875 0.75
-17.39 5.3500004 5 121 91 90 255 0.625 1
-17.39 5.3500004 5 121 91 90 255 0.875 0.75
5.2099996 6.2299986 10 123 93 92 255 0.625 1
5.2099996 6.2299986 10 123 93 92 255 0.875 0.75
-10.05 8.03 10 121 91 90 255 0.625 1
-10.05 8.03 10 121 91 90 255 0.875 0.75
3 0 1 2
3 3 4 1
3 5 6 4
3 7 8 6
3 4 9 10
3 11 7 5
3 12 13 14
3 15 16 13
3 17 18 16
3 19 20 18
3 16 21 22
3 23 19 17
3 24 25 26
3 27 28 25
3 29 30 28
3 31 32 30
3 28 33 34
3 35 31 29
3 36 37 38
3 39 40 37
3 41 42 40
3 43 44 42
3 40 45 46
3 47 43 41
3 48 49 50
3 51 52 49
3 53 54 52
3 55 56 54
3 52 57 58
3 59 55 53
3 60 61 62
3 63 64 61
3 65 66 64
3 67 68 66
3 64 69 70
3 71 67 65
3 72 73 74
3 75 76 73
3 77 78 76
3 79 80 78
3 76 81 82
3 83 79 77
3 84 85 86
3 87 88 85
3 89 90 88
3 91 92 90
3 88 93 94
3 95 91 89
3 96 97 98
3 99 100 97
3 101 102 100
3 103 104 102
3 100 105 106
3 107 103 101
3 0 3 1
3 3 5 4
3 5 7 6
3 7 108 8
3 4 6 9
3 11 109 7
3 12 15 13
3 15 17 16
3 17 19 18
3 19 110 20
3 16 18 21
3 23 111 19
3 24 27 25
3 27 29 28
3 29 31 30
3 31 112 32
3 28 30 33
3 35 113 31
3 36 39 37
3 39 41 40
3 41 43 42
3 43 114 44
3 40 42 45
3 47 115 43
3 48 51 49
3 51 53 52
3 53 55 54
3 55 116 56
3 52 54 57
3 59 117 55
3 60 63 61
3 63 65 64
3 65 67 66
3 67 118 68
3 64 66 69
3 71 119 67
3 72 75 73
3 75 77 76
3 77 79 78
3 79 120 80
3 76 78 81
3 83 121 79
3 84 87 85
3 87 89 88
3 89 91 90
3 91 122 92
3 88 90 93
3 95 123 91
3 96 99 97
3 99 101 100
3 101 103 102
3 103 124 104
3 100 102 105
3 107 125 103
