ply
format ascii 1.0
comment Created in Blender version 5.1.2
element vertex 28
property float x
property float y
property float z
property uchar red
property uchar green
property uchar blue
property uchar alpha
property float s
property float t
element face 32
property list uchar uint vertex_indices
end_header
-0.05181583 0.009727452 -1.1024632 143 137 138 255 0.375 0.28870562
-0.16411327 0.045638375 0.6107367 143 137 138 255 0.625 0.21372515
-0.12141244 0.08359262 0.60744727 143 137 138 255 0.61870664 0.27544066
-0.16411328 -0.17798159 0.16288903 143 137 138 255 0.375 0
-0.06835398 -0.013306905 -1.107862 143 137 138 255 0.375 0.21337256
0.11562834 0.08359262 0.16288903 143 137 138 255 0.375 0.5
0.052873313 -0.15281096 -0.22550088 143 137 138 255 0.35353965 0.7714604
0.11562834 -0.13133126 0.23097968 143 137 138 255 0.625 0.7054139
0.06737659 -0.17798159 0.23092973 140 131 143 255 0.64656085 0.77156085
0.05450289 -0.16433495 0.3238753 143 137 138 255 0.77182925 0.646819
0.10343792 -0.11711509 0.32321674 143 137 138 255 0.72738993 0.6023797
0.100900196 -0.10637933 -0.22491321 143 137 138 255 0.375 0.7056229
-0.060125694 -0.03318964 -1.107862 143 137 138 255 0.125 0.5366275
-0.016453305 0.0040739514 -1.109009 143 137 138 255 0.15403819 0.5096854
-0.11302477 0.06562105 0.60744727 143 137 138 255 0.836839 0.5
0.11562834 0.08359262 0.23799211 143 137 138 255 0.625 0.5
-0.16411328 -0.17798159 0.16288903 143 137 138 255 0.375 1
-0.16411328 -0.17798159 0.16288903 143 137 138 255 0.125 0.75
-0.16411328 -0.17798159 0.23799211 143 137 138 255 0.875 0.75
-0.14719081 0.035670213 0.6107367 140 131 143 255 0.875 0.53627485
-0.05181583 0.009727452 -1.1024632 143 137 138 255 0.15403819 0.5096854
-0.06835398 -0.013306905 -1.107862 143 137 138 255 0.125 0.5366275
-0.11302477 0.06562105 0.60744727 143 137 138 255 0.61870664 0.27544066
-0.16411328 -0.17798159 0.23799211 143 137 138 255 0.625 0
-0.16411328 -0.17798159 0.23799211 143 137 138 255 0.625 1
-0.12141244 0.08359262 0.60744727 143 137 138 255 0.836839 0.5
-0.16411327 0.045638375 0.6107367 143 137 138 255 0.875 0.53627485
-0.14719081 0.035670213 0.6107367 140 131 143 255 0.625 0.21372515
3 0 1 2
3 3 1 4
3 2 5 0
3 6 7 8
3 9 7 10
3 11 12 13
3 14 9 10
3 13 5 11
3 15 11 5
3 8 16 6
3 17 12 6
3 7 15 10
3 18 8 9
3 15 14 10
3 19 18 9
3 20 12 21
3 1 22 2
3 0 4 1
3 3 23 1
3 2 15 5
3 6 11 7
3 9 8 7
3 11 6 12
3 14 19 9
3 13 20 5
3 15 7 11
3 8 24 16
3 17 21 12
3 15 25 14
3 19 26 18
3 20 13 12
3 1 27 22
