ply
format ascii 1.0
comment Created in Blender version 5.1.2
element vertex 104
property float x
property float y
property float z
property uchar red
property uchar green
property uchar blue
property uchar alpha
element face 102
property list uchar uint vertex_indices
end_header
-0.52558994 -0.021278128 0.06545393 30 30 30 255
-0.5429526 -0.021278143 -0.01527966 30 30 30 255
-0.508651 0.14049044 0.036065772 30 30 30 255
-0.54295266 0.14049044 0.0056997132 30 30 30 255
0.5429527 0.028589278 0.072625056 45 45 45 255
0.5429527 0.028589278 -0.07736467 30 30 30 255
0.54295266 0.1496299 0.039120276 30 30 30 255
0.54295266 0.1496299 -0.060225826 30 30 30 255
-0.19557543 -0.021278024 -0.10496613 30 30 30 255
0.16639298 -0.0050322562 -0.11256494 30 30 30 255
-0.19557552 0.25769585 0.06539756 30 30 30 255
0.16639286 0.35125023 0.085388765 30 30 30 255
0.16639286 0.35125023 -0.076843455 30 30 30 255
-0.19557552 0.25769585 -0.07170069 30 30 30 255
0.16639298 -0.0050322562 0.12665491 30 30 30 255
-0.19557543 -0.021278024 0.10468481 30 30 30 255
0.5429527 0.0625017 -0.07736467 30 30 30 255
0.54295266 0.11606717 -0.07608993 30 30 30 255
-0.52558994 0.05004996 0.06545393 30 30 30 255
-0.52559 0.08774616 0.04855044 30 30 30 255
0.54295266 0.11606717 0.06629991 30 30 30 255
0.5429527 0.0625017 0.072625056 41 41 41 255
-0.54295266 0.08774615 -0.01527966 30 30 30 255
-0.5429526 0.050049953 -0.01527966 30 30 30 255
0.16639294 0.10751057 -0.12459764 30 30 30 255
0.16639291 0.23629902 -0.12459764 30 30 30 255
-0.19557546 0.08574722 -0.1082994 30 30 30 255
-0.19557549 0.19277246 -0.10836725 30 30 30 255
-0.19557546 0.08574722 0.10468481 30 30 30 255
-0.19557549 0.19277246 0.07788223 41 41 41 255
0.16639294 0.10751057 0.12665491 41 41 41 255
0.16639291 0.23629902 0.09787344 41 41 41 255
0.29015404 0.008395866 -0.11256494 30 30 30 255
0.41567394 0.00839591 -0.100951284 30 30 30 255
0.29015392 0.32070923 0.085388765 30 30 30 255
0.41567385 0.24643438 0.07129879 30 30 30 255
0.41567385 0.24643439 -0.076843455 30 30 30 255
0.29015392 0.32070926 -0.076843455 30 30 30 255
0.41567394 0.00839591 0.11256494 30 30 30 255
0.29015404 0.008395866 0.12665491 30 30 30 255
0.290154 0.09271784 -0.119398974 30 30 30 255
0.4156739 0.07771488 -0.11256494 30 30 30 255
0.29015398 0.20671354 -0.119398974 30 30 30 255
0.41567388 0.1767076 -0.11256494 30 30 30 255
0.4156739 0.07771489 0.11256494 41 41 41 255
0.290154 0.09271785 0.12665491 41 41 41 255
0.41567388 0.1767076 0.09592135 41 41 41 255
0.29015398 0.20671354 0.09787344 41 41 41 255
-0.07491929 -0.021277994 -0.11256494 30 30 30 255
0.045736853 -0.02127795 -0.11256494 30 30 30 255
-0.0749194 0.32156098 0.07129879 30 30 30 255
0.045736734 0.34332424 0.07872449 30 30 30 255
0.045736734 0.34332424 -0.076843455 30 30 30 255
-0.0749194 0.32156098 -0.076843455 60 60 60 255
0.045736853 -0.02127795 0.119990624 30 30 30 255
-0.07491929 -0.021277994 0.11256494 30 30 30 255
0.045736812 0.100256115 0.119990624 41 41 41 255
-0.07491933 0.09300167 0.11256494 41 41 41 255
0.045736775 0.22179016 0.09120916 41 41 41 255
-0.074919365 0.20728132 0.08378346 41 41 41 255
-0.07491933 0.09300167 -0.11925623 30 30 30 255
0.045736812 0.100256115 -0.12288314 30 30 30 255
-0.074919365 0.20728132 -0.11925623 30 30 30 255
0.045736775 0.22179016 -0.12288314 30 30 30 255
-0.31136793 0.22304966 -0.06631141 30 30 30 255
-0.4271603 0.18735248 -0.056459192 30 30 30 255
-0.31136784 -0.021278068 0.09642696 30 30 30 255
-0.42716023 -0.021278098 0.08133066 30 30 30 255
-0.42716023 -0.021278098 -0.08244568 30 30 30 255
-0.31136784 -0.021278068 -0.09700306 30 30 30 255
-0.4271603 0.18735248 0.047908194 30 30 30 255
-0.31136793 0.22304967 0.059213445 30 30 30 255
-0.31136787 0.073848136 0.09642696 30 30 30 255
-0.42716026 0.061949052 0.08133066 30 30 30 255
-0.3113679 0.16897433 0.071698114 41 41 41 255
-0.42716026 0.11154429 0.060392864 30 30 30 255
-0.42716026 0.061949037 -0.08244568 30 30 30 255
-0.31136787 0.07384812 -0.09700306 30 30 30 255
-0.42716026 0.11154429 -0.08244568 30 30 30 255
-0.3113679 0.16897433 -0.09700306 30 30 30 255
-0.5429526 -0.028433397 0.022237662 30 30 30 255
0.54295266 0.15488006 -0.01671867 30 30 30 255
-0.54295266 0.14574058 0.022237662 30 30 30 255
0.5429527 0.02143401 -0.01671867 30 30 30 255
0.16639298 -0.012187511 0.0006921748 30 30 30 255
-0.19557543 -0.028433278 0.00050392974 30 30 30 255
-0.19557552 0.262946 0.00050392974 30 30 30 255
0.16639286 0.3565004 0.0006921748 30 30 30 255
-0.5429526 0.050049953 0.022237662 30 30 30 255
-0.54295266 0.08774615 0.022237662 30 30 30 255
0.54295266 0.11606717 -0.01671867 166 200 0 255
0.5429527 0.0625017 -0.01671867 166 200 0 255
0.41567394 0.0012406409 0.0006921748 30 30 30 255
0.29015404 0.0012405962 0.0006921748 30 30 30 255
0.29015392 0.32595938 0.0006921748 30 30 30 255
0.41567385 0.25168455 0.0006921748 30 30 30 255
-0.0749194 0.32681113 0.0006921748 30 30 30 255
0.045736734 0.3485744 0.0006921748 30 30 30 255
0.045736857 -0.028433204 0.0006921748 30 30 30 255
-0.07491928 -0.028433248 0.0006921748 30 30 30 255
-0.4271603 0.19260262 -5.396805e-05 30 30 30 255
-0.31136793 0.22829983 0.00030666118 30 30 30 255
-0.31136784 -0.028433323 0.00030666118 30 30 30 255
-0.42716023 -0.028433353 -5.396805e-05 30 30 30 255
4 46 20 6 35
4 95 35 6 81
4 91 21 4 83
4 78 22 3 65
4 89 19 2 82
4 103 67 0 80
4 93 39 14 84
4 99 55 15 85
4 42 25 12 37
4 62 27 13 53
4 101 71 10 86
4 97 51 11 87
4 74 29 10 71
4 58 31 11 51
4 54 14 30 56
4 56 30 31 58
4 66 15 28 72
4 72 28 29 74
4 48 8 26 60
4 60 26 27 62
4 32 9 24 40
4 40 24 25 42
4 80 0 18 88
4 88 18 19 89
4 68 1 23 76
4 76 23 22 78
4 81 6 20 90
4 90 20 21 91
4 38 4 21 44
4 44 21 20 46
4 30 45 47 31
4 45 44 46 47
4 14 39 45 30
4 39 38 44 45
4 16 41 43 17
4 41 40 42 43
4 5 33 41 16
4 33 32 40 41
4 17 43 36 7
4 43 42 37 36
4 83 4 38 92
4 92 38 39 93
4 87 11 34 94
4 94 34 35 95
4 31 47 34 11
4 47 46 35 34
4 24 61 63 25
4 61 60 62 63
4 9 49 61 24
4 49 48 60 61
4 28 57 59 29
4 57 56 58 59
4 15 55 57 28
4 55 54 56 57
4 29 59 50 10
4 59 58 51 50
4 86 10 50 96
4 96 50 51 97
4 25 63 52 12
4 63 62 53 52
4 84 14 54 98
4 98 54 55 99
4 26 77 79 27
4 77 76 78 79
4 8 69 77 26
4 69 68 76 77
4 18 73 75 19
4 73 72 74 75
4 0 67 73 18
4 67 66 72 73
4 19 75 70 2
4 75 74 71 70
4 82 2 70 100
4 100 70 71 101
4 85 15 66 102
4 102 66 67 103
4 27 79 64 13
4 79 78 65 64
4 69 102 103 68
4 8 85 102 69
4 65 100 101 64
4 3 82 100 65
4 49 98 99 48
4 9 84 98 49
4 53 96 97 52
4 13 86 96 53
4 37 94 95 36
4 12 87 94 37
4 33 92 93 32
4 5 83 92 33
4 17 90 91 16
4 7 81 90 17
4 23 88 89 22
4 1 80 88 23
4 52 97 87 12
4 64 101 86 13
4 48 99 85 8
4 32 93 84 9
4 68 103 80 1
4 22 89 82 3
4 16 91 83 5
4 36 95 81 7
