ply
format ascii 1.0
comment Created in Blender version 5.1.1
element vertex 28
property float x
property float y
property float z
property uchar red
property uchar green
property uchar blue
property uchar alpha
property float s
property float t
property float Color_r
property float Color_g
property float Color_b
property float Color_a
element face 24
property list uchar uint vertex_indices
end_header
0.15630598 -0.13300106 0.054764383 19 18 20 255 0.375 0 0.08930614 0.14857613 0.06877887 1
0.215224 -0.5744816 -0.017445173 99 91 107 255 0.625 0.25 0.08930614 0.14857613 0.06877887 1
0.27280116 -0.57448155 0.017445842 99 91 107 255 0.375 0.25 0.08930614 0.14857613 0.06877887 1
0.25372088 -0.57448155 -0.017445171 99 91 107 255 0.625 0.5 0.08930614 0.14857613 0.06877887 1
0.44485536 -0.57448155 0.01744585 178 23 0 255 0.375 0.5 0.08930614 0.14857613 0.06877887 1
0.36725187 -0.13300106 0.0096079875 128 124 137 255 0.375 0.75 0.08930614 0.14857613 0.06877887 1
0.17611738 -0.055921867 -0.09999987 128 124 137 255 0.625 0.75 0.08930614 0.14857613 0.06877887 1
0.15630598 -0.13300106 0.054764383 19 18 20 255 0.375 1 0.08930614 0.14857613 0.06877887 1
0.27280116 -0.57448155 0.017445842 99 91 107 255 0.125 0.5 0.08930614 0.14857613 0.06877887 1
0.15630598 -0.13300106 0.054764383 19 18 20 255 0.125 0.75 0.08930614 0.14857613 0.06877887 1
0.215224 -0.5744816 -0.017445173 99 91 107 255 0.875 0.5 0.08930614 0.14857613 0.06877887 1
-0.2624973 -0.08168963 -0.09999987 128 124 137 255 0.625 0 0.08930614 0.14857613 0.06877887 1
-0.2624973 -0.08168963 -0.09999987 128 124 137 255 0.625 1 0.08930614 0.14857613 0.06877887 1
-0.2624973 -0.08168963 -0.09999987 128 124 137 255 0.875 0.75 0.08930614 0.14857613 0.06877887 1
0.15630595 0.13143374 0.054764234 19 18 20 255 0.375 0 0.08930614 0.14857613 0.06877887 1
0.21522385 0.5729142 -0.017445821 128 124 137 255 0.625 0.25 0.08930614 0.14857613 0.06877887 1
0.27280104 0.57291424 0.017445195 128 124 137 255 0.375 0.25 0.08930614 0.14857613 0.06877887 1
0.25372076 0.57291424 -0.01744582 128 124 137 255 0.625 0.5 0.08930614 0.14857613 0.06877887 1
0.44485524 0.57291424 0.017445203 146 178 0 255 0.375 0.5 0.08930614 0.14857613 0.06877887 1
0.3672518 0.13143374 0.0096078385 128 124 137 255 0.375 0.75 0.08930614 0.14857613 0.06877887 1
0.17611738 0.054354392 -0.09999993 128 124 137 255 0.625 0.75 0.08930614 0.14857613 0.06877887 1
0.15630595 0.13143374 0.054764234 19 18 20 255 0.375 1 0.08930614 0.14857613 0.06877887 1
0.27280104 0.57291424 0.017445195 128 124 137 255 0.125 0.5 0.08930614 0.14857613 0.06877887 1
0.15630595 0.13143374 0.054764234 19 18 20 255 0.125 0.75 0.08930614 0.14857613 0.06877887 1
0.21522385 0.5729142 -0.017445821 128 124 137 255 0.875 0.5 0.08930614 0.14857613 0.06877887 1
-0.2624973 0.080122046 -0.099999964 128 124 137 255 0.625 0 0.08930614 0.14857613 0.06877887 1
-0.2624973 0.080122046 -0.099999964 128 124 137 255 0.625 1 0.08930614 0.14857613 0.06877887 1
-0.2624973 0.080122046 -0.099999964 128 124 137 255 0.875 0.75 0.08930614 0.14857613 0.06877887 1
3 0 1 2
3 2 3 4
3 3 5 4
3 6 7 5
3 8 5 9
3 10 6 3
3 0 11 1
3 2 1 3
3 3 6 5
3 6 12 7
3 8 4 5
3 10 13 6
3 14 15 16
3 16 17 18
3 17 19 18
3 20 21 19
3 22 19 23
3 24 20 17
3 14 25 15
3 16 15 17
3 17 20 19
3 20 26 21
3 22 18 19
3 24 27 20
