ply
format ascii 1.0
comment Created in Blender version 5.1.2
element vertex 104
property float x
property float y
property float z
property uchar red
property uchar green
property uchar blue
property uchar alpha
element face 204
property list uchar uint vertex_indices
end_header
-0.9680217 -0.18389586 0.12055184 30 30 30 255
-0.9999999 -0.18389586 -0.028141793 30 30 30 255
-0.9368239 0.114046484 0.06642527 30 30 30 255
-1 0.11404647 0.010497626 30 30 30 255
1.0000001 -0.092051 0.13375947 45 45 45 255
1.0000001 -0.092051 -0.1424888 30 30 30 255
1 0.13087937 0.072050996 30 30 30 255
1 0.13087937 -0.110922806 30 30 30 255
-0.36020714 -0.18389565 -0.19332466 30 30 30 255
0.3064595 -0.1539745 -0.20732 30 30 30 255
-0.36020732 0.32991323 0.12044801 30 30 30 255
0.30645925 0.5022199 0.15726744 30 30 30 255
0.30645925 0.5022199 -0.14152884 30 30 30 255
-0.36020732 0.32991323 -0.132057 30 30 30 255
0.3064595 -0.1539745 0.23327065 30 30 30 255
-0.36020714 -0.18389565 0.19280653 30 30 30 255
1.0000001 -0.029591724 -0.1424888 30 30 30 255
1 0.06906417 -0.14014103 30 30 30 255
-0.96802175 -0.05252509 0.12055184 30 30 30 255
-0.96802175 0.016903043 0.089419305 30 30 30 255
1 0.069064155 0.122109935 30 30 30 255
1.0000001 -0.029591724 0.13375947 41 41 41 255
-0.99999994 0.016903028 -0.028141793 30 30 30 255
-0.99999994 -0.052525103 -0.028141793 30 30 30 255
0.3064594 0.053304754 -0.22948162 30 30 30 255
0.30645934 0.29050493 -0.22948162 30 30 30 255
-0.3602072 0.013221443 -0.19946381 30 30 30 255
-0.36020726 0.2103385 -0.19958879 30 30 30 255
-0.3602072 0.013221443 0.19280653 30 30 30 255
-0.36020726 0.2103385 0.14344205 41 41 41 255
0.3064594 0.053304754 0.23327065 41 41 41 255
0.30645934 0.29050493 0.18026148 41 41 41 255
0.5344003 -0.12924284 -0.20732 30 30 30 255
0.7655805 -0.12924278 -0.18593019 30 30 30 255
0.5344001 0.4459701 0.15726744 30 30 30 255
0.7655803 0.30917203 0.1313168 30 30 30 255
0.7655803 0.30917203 -0.14152884 30 30 30 255
0.5344001 0.4459701 -0.14152884 30 30 30 255
0.7655805 -0.12924278 0.20732 30 30 30 255
0.5344003 -0.12924284 0.23327065 30 30 30 255
0.5344002 0.026059806 -0.2199068 30 30 30 255
0.7655804 -0.0015723556 -0.20732 30 30 30 255
0.53440017 0.23601493 -0.2199068 30 30 30 255
0.76558036 0.18075053 -0.20732 30 30 30 255
0.7655804 -0.0015723407 0.20732 41 41 41 255
0.5344002 0.026059806 0.23327065 41 41 41 255
0.76558036 0.18075053 0.17666617 41 41 41 255
0.53440017 0.23601493 0.18026148 41 41 41 255
-0.13798493 -0.18389559 -0.20732 30 30 30 255
0.08423728 -0.1838955 -0.20732 30 30 30 255
-0.13798514 0.44753873 0.1313168 30 30 30 255
0.084237054 0.48762193 0.1449933 30 30 30 255
0.084237054 0.48762193 -0.14152884 30 30 30 255
-0.13798514 0.44753876 -0.14152884 60 60 60 255
0.08423728 -0.1838955 0.2209965 30 30 30 255
-0.13798493 -0.18389559 0.20732 30 30 30 255
0.0842372 0.03994365 0.2209965 41 41 41 255
-0.137985 0.026582554 0.20732 41 41 41 255
0.08423713 0.2637828 0.16798733 41 41 41 255
-0.13798507 0.23706065 0.15431082 41 41 41 255
-0.137985 0.026582554 -0.2196439 30 30 30 255
0.0842372 0.03994365 -0.22632387 30 30 30 255
-0.13798507 0.23706065 -0.2196439 30 30 30 255
0.08423713 0.2637828 -0.22632387 30 30 30 255
-0.5734716 0.2661025 -0.12213113 30 30 30 255
-0.7867358 0.20035608 -0.10398549 30 30 30 255
-0.5734714 -0.1838957 0.17759737 30 30 30 255
-0.78673565 -0.1838958 0.1497933 30 30 30 255
-0.78673565 -0.1838958 -0.15184692 30 30 30 255
-0.5734714 -0.1838957 -0.17865843 30 30 30 255
-0.7867358 0.2003561 0.08823642 30 30 30 255
-0.5734716 0.2661025 0.10905822 30 30 30 255
-0.5734715 -0.008694068 0.17759737 30 30 30 255
-0.7867357 -0.030609578 0.1497933 30 30 30 255
-0.57347155 0.16650756 0.13205226 41 41 41 255
-0.7867357 0.060733996 0.111230455 30 30 30 255
-0.7867357 -0.030609593 -0.15184692 30 30 30 255
-0.5734715 -0.008694097 -0.17865843 30 30 30 255
-0.7867357 0.060733996 -0.15184692 30 30 30 255
-0.57347155 0.16650756 -0.17865843 30 30 30 255
-0.9999999 -0.19707426 0.040956914 30 30 30 255
1 0.140549 -0.030792136 30 30 30 255
-1 0.12371609 0.040956914 30 30 30 255
1.0000001 -0.10522944 -0.030792136 30 30 30 255
0.3064595 -0.16715291 0.0012748347 30 30 30 255
-0.36020714 -0.19707406 0.0009281284 30 30 30 255
-0.36020732 0.33958286 0.0009281284 30 30 30 255
0.30645925 0.5118895 0.0012748347 30 30 30 255
-0.99999994 -0.052525103 0.040956914 30 30 30 255
-0.99999994 0.016903028 0.040956914 30 30 30 255
1 0.069064155 -0.030792136 166 200 0 255
1.0000001 -0.029591724 -0.030792136 166 200 0 255
0.7655805 -0.14242119 0.0012748347 30 30 30 255
0.5344003 -0.14242125 0.0012748347 30 30 30 255
0.53440005 0.45563972 0.0012748347 30 30 30 255
0.7655803 0.31884167 0.0012748347 30 30 30 255
-0.13798514 0.4572084 0.0012748347 30 30 30 255
0.084237054 0.49729156 0.0012748347 30 30 30 255
0.08423728 -0.1970739 0.0012748347 30 30 30 255
-0.13798493 -0.197074 0.0012748347 30 30 30 255
-0.7867358 0.21002571 -9.939735e-05 30 30 30 255
-0.5734716 0.27577215 0.0005648029 30 30 30 255
-0.5734714 -0.19707412 0.0005648029 30 30 30 255
-0.78673565 -0.1970742 -9.939735e-05 30 30 30 255
3 46 6 35
3 95 6 81
3 91 4 83
3 22 65 78
3 89 2 82
3 67 80 103
3 93 14 84
3 99 15 85
3 25 37 42
3 62 13 53
3 71 86 101
3 51 87 97
3 29 71 74
3 31 51 58
3 14 56 54
3 30 58 56
3 15 72 66
3 28 74 72
3 48 26 60
3 60 27 62
3 9 40 32
3 24 42 40
3 0 88 80
3 88 19 89
3 68 23 76
3 76 22 78
3 6 90 81
3 20 91 90
3 4 44 38
3 44 20 46
3 30 47 31
3 45 46 47
3 14 45 30
3 39 44 45
3 41 17 16
3 40 43 41
3 33 16 5
3 32 41 33
3 43 7 17
3 42 36 43
3 4 92 83
3 38 93 92
3 11 94 87
3 94 35 95
3 31 34 11
3 47 35 34
3 24 63 25
3 61 62 63
3 9 61 24
3 49 60 61
3 57 29 28
3 56 59 57
3 55 28 15
3 54 57 55
3 59 10 29
3 58 50 59
3 10 96 86
3 50 97 96
3 25 52 12
3 63 53 52
3 84 54 98
3 98 55 99
3 26 79 27
3 77 78 79
3 8 77 26
3 69 76 77
3 18 75 19
3 72 75 73
3 67 18 0
3 66 73 67
3 75 2 19
3 74 70 75
3 82 70 100
3 70 101 100
3 85 66 102
3 102 67 103
3 27 64 13
3 79 65 64
3 102 68 69
3 85 69 8
3 65 101 64
3 3 100 65
3 98 48 49
3 84 49 9
3 96 52 53
3 13 96 53
3 37 95 36
3 12 94 37
3 33 93 32
3 5 92 33
3 17 91 16
3 7 90 17
3 88 22 23
3 1 88 23
3 97 12 52
3 64 86 13
3 99 8 48
3 93 9 32
3 103 1 68
3 89 3 22
3 91 5 16
3 36 81 7
3 46 20 6
3 95 35 6
3 91 21 4
3 22 3 65
3 89 19 2
3 67 0 80
3 93 39 14
3 99 55 15
3 25 12 37
3 62 27 13
3 71 10 86
3 51 11 87
3 29 10 71
3 31 11 51
3 14 30 56
3 30 31 58
3 15 28 72
3 28 29 74
3 48 8 26
3 60 26 27
3 9 24 40
3 24 25 42
3 0 18 88
3 88 18 19
3 68 1 23
3 76 23 22
3 6 20 90
3 20 21 91
3 4 21 44
3 44 21 20
3 30 45 47
3 45 44 46
3 14 39 45
3 39 38 44
3 41 43 17
3 40 42 43
3 33 41 16
3 32 40 41
3 43 36 7
3 42 37 36
3 4 38 92
3 38 39 93
3 11 34 94
3 94 34 35
3 31 47 34
3 47 46 35
3 24 61 63
3 61 60 62
3 9 49 61
3 49 48 60
3 57 59 29
3 56 58 59
3 55 57 28
3 54 56 57
3 59 50 10
3 58 51 50
3 10 50 96
3 50 51 97
3 25 63 52
3 63 62 53
3 84 14 54
3 98 54 55
3 26 77 79
3 77 76 78
3 8 69 77
3 69 68 76
3 18 73 75
3 72 74 75
3 67 73 18
3 66 72 73
3 75 70 2
3 74 71 70
3 82 2 70
3 70 71 101
3 85 15 66
3 102 66 67
3 27 79 64
3 79 78 65
3 102 103 68
3 85 102 69
3 65 100 101
3 3 82 100
3 98 99 48
3 84 98 49
3 96 97 52
3 13 86 96
3 37 94 95
3 12 87 94
3 33 92 93
3 5 83 92
3 17 90 91
3 7 81 90
3 88 89 22
3 1 80 88
3 97 87 12
3 64 101 86
3 99 85 8
3 93 84 9
3 103 80 1
3 89 82 3
3 91 83 5
3 36 95 81
