ply
format ascii 1.0
comment Created in Blender version 5.1.1
element vertex 452
property float x
property float y
property float z
property uchar red
property uchar green
property uchar blue
property uchar alpha
property float s
property float t
element face 396
property list uchar uint vertex_indices
end_header
-0.40268406 0.09002247 0.0077817095 30 30 30 255 0.47877356 0.998075
-0.4042056 0.090326734 0.008249741 30 30 30 255 0.47877568 0.99850595
-0.33716184 0.08167269 0.068323664 41 40 40 255 0.61898243 0.9970355
-0.33588395 0.080421254 0.068228945 41 40 40 255 0.6172105 0.99613476
-0.4056262 0.090914994 0.008694302 30 30 30 255 0.47878218 0.99892056
-0.33851138 0.0831558 0.06841363 41 40 40 255 0.6209053 0.9980107
-0.40687475 0.09175777 0.009093099 30 30 30 255 0.47963655 0.9995286
-0.33986488 0.08479623 0.06849434 41 40 40 255 0.62359226 0.9993419
-0.40687475 0.09175777 0.009093099 30 30 30 255 0.48115075 0
-0.40788856 0.09281278 0.009426141 30 30 30 255 0.47954583 0.004718464
-0.34115452 0.08651169 0.06856174 41 40 40 255 0.6256571 0.005388708
-0.33986488 0.08479623 0.06849434 41 40 40 255 0.625 0
-0.40861678 0.09402713 0.009676722 30 30 30 255 0.47931808 0.011682173
-0.34231558 0.088216156 0.06861244 41 40 40 255 0.6252954 0.013640333
-0.40902302 0.09533994 0.009832287 30 30 30 255 0.4789117 0.016090333
-0.34328985 0.08982419 0.06864393 41 40 40 255 0.62507474 0.021426002
-0.40908676 0.096685365 0.009885018 30 30 30 255 0.4787736 0.020708153
-0.34402847 0.09125516 0.0686546 41 40 40 255 0.625 0.028341115
0.17562816 0.063886486 -0.07825933 18 18 17 255 0.29166722 0.7434388
0.1762753 0.06257559 -0.07795171 18 18 17 255 0.29166883 0.74508905
0.5459518 0.051527645 -0.065540984 30 30 30 255 0.37525672 0.7440445
0.5446654 0.052835993 -0.065806 30 30 30 255 0.3750648 0.74199533
0.17681131 0.061419416 -0.07735586 18 18 17 255 0.2916712 0.7464825
0.5468298 0.050388318 -0.064991534 30 30 30 255 0.37556893 0.74580026
0.17720933 0.06047591 -0.07650168 18 18 17 255 0.29153928 0.75
0.5472555 0.049475145 -0.06418521 30 30 30 255 0.37589568 0.7495235
0.17720933 0.06047591 -0.07650168 18 18 17 255 0.375 0.8334607
0.17744939 0.059792396 -0.075431995 18 18 17 255 0.37988216 0.83341813
0.5472075 0.04883392 -0.06316244 30 30 30 255 0.38047022 0.74976194
0.17751946 0.059403136 -0.074200444 18 18 17 255 0.38152725 0.83335483
0.54668814 0.04849679 -0.061974514 30 30 30 255 0.38235188 0.7499397
0.177416 0.05932767 -0.072868764 18 18 17 255 0.38334373 0.8333333
0.5457236 0.048480675 -0.060680993 30 30 30 255 0.38441 0.75
-0.29123297 0.074842066 0.09818026 30 30 30 255 0.850356 0.7267789
-0.29068753 0.073468454 0.098377414 30 30 30 255 0.85039407 0.73195225
-0.34328985 0.08982419 0.06864393 41 40 40 255 0.8749679 0.7285249
-0.34402847 0.09125516 0.0686546 41 40 40 255 0.875 0.7216589
-0.29026115 0.072200745 0.098237716 30 30 30 255 0.8505064 0.73688066
-0.34231558 0.088216156 0.06861244 41 40 40 255 0.87487334 0.7361579
-0.28997514 0.07110253 0.09776811 30 30 30 255 0.8509039 0.75
-0.34115452 0.08651169 0.06856174 41 40 40 255 0.875 0.75
-0.28997514 0.07110253 0.09776811 30 30 30 255 0.625 0.9759039
-0.2898439 0.07022886 0.096992195 30 30 30 255 0.6216903 0.9756136
-0.34115452 0.08651169 0.06856174 41 40 40 255 0.625 1
-0.28987396 0.06962357 0.095948845 30 30 30 255 0.6202676 0.97547185
-0.29006386 0.06931699 0.0946904 30 30 30 255 0.6186259 0.9753852
-0.29040402 0.069324486 0.09327996 30 30 30 255 0.616839 0.975356
-0.34521943 0.0839688 -0.09814332 19 19 19 255 0.14964399 0.73918664
-0.34503374 0.08262794 -0.09839403 23 23 22 255 0.14964879 0.74152756
-0.15300766 0.074980214 -0.09046759 18 18 17 255 0.20834744 0.74174887
-0.15351066 0.07637022 -0.09043546 18 18 17 255 0.20833333 0.7394645
-0.34477088 0.081368856 -0.09832359 26 26 26 255 0.14966288 0.7436206
-0.15246236 0.073680855 -0.090190634 18 18 17 255 0.20838904 0.7437986
-0.344444 0.080254704 -0.097935565 28 28 28 255 0.14968547 0.74536145
-0.15190208 0.07253732 -0.08961849 18 18 17 255 0.20845611 0.7455101
-0.34406954 0.07934134 -0.09724939 29 29 29 255 0.14962636 0.75
-0.15135491 0.07160692 -0.08877984 18 18 17 255 0.20834452 0.75
-0.34406954 0.07934134 -0.09724939 29 29 29 255 0.375 0.9753736
-0.3436662 0.07867457 -0.09629948 29 29 29 255 0.3795839 0.9753972
-0.15084833 0.07093633 -0.08771673 18 18 17 255 0.37937024 0.91674113
-0.15135491 0.07160692 -0.08877984 18 18 17 255 0.375 0.9166554
-0.3432542 0.078287825 -0.09513347 29 29 29 255 0.3810441 0.9753665
-0.15040769 0.07055916 -0.08648248 18 18 17 255 0.38081998 0.91668546
-0.3428543 0.0782005 -0.09380982 29 29 29 255 0.38270092 0.975356
-0.15005511 0.07049435 -0.08513898 18 18 17 255 0.38243282 0.9166666
0.17490232 0.06528633 -0.078263305 18 18 17 255 0.29166666 0.7416142
0.38399935 0.06291183 0.09028398 30 30 30 255 0.625 0.7257964
0.390401 0.061437085 0.09011474 30 30 30 255 0.62485087 0.7310873
0.13855216 0.06592784 0.10246311 41 40 40 255 0.7082798 0.73117745
0.13438861 0.067378536 0.10262658 41 40 40 255 0.7083333 0.7259538
0.39678136 0.06003153 0.08961547 30 30 30 255 0.62440884 0.73592365
0.14255244 0.06455842 0.10198087 41 40 40 255 0.70812273 0.73588496
0.40282035 0.05876565 0.08881123 30 30 30 255 0.6252804 0.7479296
0.14618883 0.06333894 0.10120407 41 40 40 255 0.7094215 0.75
0.40821517 0.057702914 0.08774234 30 30 30 255 0.6208602 0.7494532
0.14927898 0.06233055 0.100171626 41 40 40 255 0.62141085 0.8345536
0.14618883 0.06333894 0.10120407 41 40 40 255 0.625 0.8344215
0.4126954 0.05689662 0.08646239 30 30 30 255 0.6189579 0.7496972
0.151668 0.061583813 0.098935336 41 40 40 255 0.61982274 0.8338903
0.41603628 0.056387194 0.08503558 30 30 30 255 0.6166545 0.7499193
0.15323603 0.06113617 0.09755719 41 40 40 255 0.6179956 0.83347464
0.41807035 0.05620018 0.083533436 30 30 30 255 0.61424184 0.75
0.15390447 0.061010085 0.096106276 41 40 40 255 0.6160216 0.83333325
-0.11145753 0.06908704 0.11433209 30 30 30 255 0.7916731 0.736184
-0.11330081 0.07040696 0.11480788 30 30 30 255 0.7916682 0.73139876
-0.109878555 0.067932606 0.11356567 30 30 30 255 0.7922956 0.75
-0.10864311 0.06700157 0.11254705 30 30 30 255 0.6220207 0.91729164
-0.109878555 0.067932606 0.11356567 30 30 30 255 0.625 0.9172956
-0.10781312 0.066340595 0.11132728 30 30 30 255 0.6205627 0.91695136
-0.10743023 0.06598285 0.10996757 30 30 30 255 0.61893106 0.91673887
-0.10751361 0.06594625 0.108536065 30 30 30 255 0.6172019 0.9166666
-0.45620868 0.100274764 -0.031822424 30 30 30 255 0.125 0.7333028
-0.45635018 0.09896062 -0.031798832 30 30 30 255 0.12504634 0.73701525
-0.45596322 0.097652905 -0.03172925 30 30 30 255 0.12517996 0.7405035
-0.45506728 0.096417196 -0.03161717 30 30 30 255 0.12538318 0.74347967
-0.45370716 0.09531546 -0.031468194 30 30 30 255 0.1256251 0.75
-0.45370716 0.09531546 -0.031468194 30 30 30 255 0.3777861 0.9994559
-0.45195106 0.09440295 -0.03128981 30 30 30 255 0.380925 0.9992677
-0.44988722 0.09372539 -0.031090956 30 30 30 255 0.38295633 0.99900466
-0.44761893 0.09331679 -0.030881602 30 30 30 255 0.38516897 0.9987199
-0.45506728 0.096417196 -0.03161717 30 30 30 255 0.37864828 1
-0.40788856 0.09281278 0.009426141 30 30 30 255 0.47877356 1
-0.45506728 0.096417196 -0.03161717 30 30 30 255 0.37864828 0
-0.45596322 0.097652905 -0.03172925 30 30 30 255 0.3763171 0.0096396385
-0.45635018 0.09896062 -0.031798832 30 30 30 255 0.37533525 0.013033816
-0.45620868 0.100274764 -0.031822424 30 30 30 255 0.375 0.016697213
-0.43095547 0.18092597 -0.031822424 41 40 40 255 0.375 0.25
-0.40366006 0.16276596 0.009885018 41 40 40 255 0.47877356 0.25
-0.32133263 0.08182071 -0.017042223 30 30 30 255 0.4787736 0.975356
0.16777304 0.06360971 -0.003565807 30 30 30 255 0.4787736 0.8333334
0.49331218 0.055005267 -0.0014698886 30 30 30 255 0.4787736 0.75
-0.13259761 0.07591002 -0.005661721 30 30 30 255 0.4787736 0.9166666
0.03240324 0.19159925 0.0032953941 30 30 30 255 0.47145924 0.41666663
0.036106225 0.18684305 0.008092391 30 30 30 255 0.47877353 0.41925538
0.0313719 0.19038509 0.0047011795 30 30 30 255 0.47363517 0.41666454
0.030145142 0.18902962 0.00637333 30 30 30 255 0.47622854 0.4166586
0.02880657 0.18762523 0.0081978915 30 30 30 255 0.47904426 0.4166391
0.027447402 0.1862676 0.010050523 30 30 30 255 0.48176035 0.41653672
0.02616027 0.18504928 0.01180497 30 30 30 255 0.48432934 0.41643322
0.025032884 0.18405326 0.013341671 30 30 30 255 0.48657805 0.4163367
-0.34062046 0.24798046 0.0044527366 30 30 30 255 0.4861315 0.27464402
-0.34588307 0.2479862 0.0009473364 30 30 30 255 0.4787736 0.2730406
-0.34100896 0.24937919 0.0031614595 30 30 30 255 0.48420492 0.27459452
-0.3415052 0.25040722 0.0015121154 30 30 30 255 0.4823666 0.27444902
-0.34207538 0.25099453 -0.0003828937 30 30 30 255 0.48075446 0.27421355
-0.3426806 0.25110108 -0.002394426 30 30 30 255 0.47952822 0.27388877
-0.34327963 0.25071955 -0.0043854006 30 30 30 255 0.4787739 0.27349612
-0.34383166 0.24987604 -0.0062201344 30 30 30 255 0.47847 0.27308467
0.34933755 0.18555057 -0.051658615 30 30 30 255 0.36619967 0.53453827
0.35062703 0.1939977 -0.04750042 30 30 30 255 0.36944112 0.5191036
0.08290924 0.23511031 -0.05864634 18 18 17 255 0.29113606 0.51668483
0.090032205 0.22540537 -0.061454184 18 18 17 255 0.2916667 0.52959675
0.3456789 0.19818842 -0.041033536 30 30 30 255 0.38083172 0.49993664
0.07529645 0.2392728 -0.053321656 18 18 17 255 0.29166666 0.5
0.335819 0.19699985 -0.03399076 30 30 30 255 0.3983025 0.5
0.06923367 0.23677747 -0.04690687 18 18 17 255 0.3938594 0.4166667
0.07529645 0.2392728 -0.053321656 18 18 17 255 0.375 0.41666666
0.5096673 0.055248316 -0.06690541 21 21 21 255 0.3674466 0.73992366
0.52656955 0.054558992 -0.06634373 30 30 30 255 0.37122628 0.74013424
0.5393798 0.053676054 -0.06594132 30 30 30 255 0.37626928 0.73919487
0.5446654 0.052835993 -0.065806 30 30 30 255 0.3750648 0.74199533
0.25988176 0.17131408 0.010123195 30 30 30 255 0.4787736 0.5
-0.3541598 0.22868477 -0.040547118 19 19 18 255 0.15105502 0.5
-0.3768339 0.20894341 -0.051529802 18 18 17 255 0.14663881 0.50428087
-0.35526899 0.2258131 -0.04455262 18 18 17 255 0.15187426 0.48225936
-0.3768339 0.20894341 -0.051529802 18 18 17 255 0.14964399 0.50856173
-0.35621902 0.22210579 -0.04865154 18 18 17 255 0.15119869 0.48985994
-0.3569623 0.21774879 -0.05263833 18 18 17 255 0.15036756 0.5
-0.3574616 0.21296059 -0.056313094 18 18 17 255 0.14964399 0.5076968
-0.35769182 0.20798132 -0.059491538 18 18 17 255 0.14964399 0.51727355
-0.3576415 0.20306055 -0.062014297 18 18 17 255 0.14964399 0.5264843
-0.35731304 0.19844513 -0.06375488 18 18 17 255 0.14964399 0.53486717
0.08033873 0.23146582 -0.060677458 18 18 17 255 0 0
0.08641757 0.2276814 -0.061291814 18 18 17 255 0 0
0.08290924 0.23511031 -0.05864634 18 18 17 255 0 0
-0.3768339 0.20894341 -0.051529802 18 18 17 255 0.375 0.26863366
-0.3541598 0.22868477 -0.040547118 19 19 18 255 0.4059107 0.27464402
-0.34383166 0.24987604 -0.0062201344 30 30 30 255 0.46710503 0.27464402
-0.43095547 0.18092597 -0.031822424 41 40 40 255 0.125 0.5
0.06923367 0.23677747 -0.04690687 18 18 17 255 0.28800473 0.51113266
0.06923367 0.23677747 -0.04690687 18 18 17 255 0.28842795 0.5097165
0.07529195 0.23927446 -0.053323373 18 18 17 255 0.2910452 0.50791276
0.07529645 0.2392728 -0.053321656 18 18 17 255 0.29166666 0.5065042
0.090032205 0.22540537 -0.061454184 18 18 17 255 0 0
0.075137414 0.23461342 -0.059437014 18 18 17 255 0 0
0.03184238 0.103410244 0.10262658 41 40 40 255 0.7083333 0.5934428
0.016158318 0.10940745 0.10207172 41 40 40 255 0.70758563 0.5709528
0.20727874 0.105113424 0.08969419 41 40 40 255 0.62391734 0.571465
0.23041074 0.09908313 0.09028398 41 40 40 255 0.625 0.59348416
0.002074961 0.11579041 0.10043494 41 40 40 255 0.70537114 0.54619634
0.18733726 0.111528166 0.087954335 41 40 40 255 0.6207136 0.5481124
-0.0097016115 0.12223912 0.09779831 41 40 40 255 0.7003511 0.5
0.17158628 0.11800571 0.085151695 41 40 40 255 0.6218325 0.5117465
-0.0097016115 0.12223912 0.09779831 41 40 40 255 0.625 0.42464888
-0.01858084 0.12843019 0.094294064 41 40 40 255 0.6150544 0.42462778
0.1608154 0.12422126 0.081426814 41 40 40 255 0.6111202 0.5137002
-0.024117475 0.13405319 0.09009789 41 40 40 255 0.60701716 0.42027846
0.1555651 0.12986307 0.07696643 41 40 40 255 0.60174286 0.5062446
-0.026033916 0.13882613 0.08542022 41 40 40 255 0.59875774 0.41757813
0.15609838 0.13464831 0.07199425 41 40 40 255 0.59189695 0.5015824
-0.024233993 0.14250967 0.08049561 41 40 40 255 0.59079117 0.41666666
0.16238855 0.138337 0.06675957 41 40 40 255 0.58208764 0.5
-0.35327742 0.11131797 0.0686546 41 40 40 255 0.875 0.62481797
-0.35639137 0.117379025 0.067949735 41 40 40 255 0.8752881 0.5959274
-0.30874527 0.11634671 0.087193824 41 40 40 255 0.850338 0.57275486
-0.30618623 0.11004969 0.089058876 41 40 40 255 0.850356 0.5961
-0.36027175 0.12374996 0.065870486 41 40 40 255 0.87614113 0.56617385
-0.31140003 0.12339932 0.084677406 41 40 40 255 0.85028446 0.5466597
-0.364724 0.1301113 0.06252114 41 40 40 255 0.875 0.5
-0.31401753 0.13085388 0.08163582 41 40 40 255 0.8496226 0.5
-0.364724 0.1301113 0.06252114 41 40 40 255 0.6184647 0.22896053
-0.3695249 0.1361441 0.05806961 41 40 40 255 0.6058155 0.24176157
-0.31646642 0.13833654 0.078221574 41 40 40 255 0.6206051 0.27497867
-0.31401753 0.13085388 0.08163582 41 40 40 255 0.625 0.27537733
-0.37443364 0.14154583 0.05273913 41 40 40 255 0.58865 0.24641316
-0.31862393 0.14547212 0.07460589 41 40 40 255 0.6125476 0.2747937
-0.37920415 0.14604563 0.046797004 41 40 40 255 0.5714295 0.24911955
-0.3203819 0.15190282 0.07097006 41 40 40 255 0.60505605 0.27468145
-0.38359714 0.14941783 0.040541172 41 40 40 255 0.55505013 0.25
-0.32165214 0.1573062 0.06749639 41 40 40 255 0.5985187 0.27464402
-0.36027175 0.12374996 0.065870486 41 40 40 255 0.6192923 0.18207593
-0.35639137 0.117379025 0.067949735 41 40 40 255 0.6235783 0.15370215
-0.35327742 0.11131797 0.0686546 41 40 40 255 0.625 0.12518212
0.025032884 0.18405326 0.013341671 30 30 30 255 0.48698825 0.41666663
-0.09732327 0.07150572 0.11407981 34 34 34 255 0.78566194 0.7261669
-0.113304965 0.07040989 0.11480821 30 30 30 255 0.7916682 0.73138803
-0.10180175 0.07158516 0.114232406 34 34 34 255 0.7871499 0.7261401
-0.113304965 0.07040989 0.11480821 30 30 30 255 0.79166824 0.73138803
-0.107005134 0.07167691 0.11428674 33 33 33 255 0.78886724 0.7260538
-0.11267249 0.07177635 0.11424009 32 32 32 255 0.79072845 0.7259124
-0.11851961 0.07187849 0.11409477 31 31 31 255 0.7929043 0.7257471
-0.124253325 0.07197823 0.113858104 30 30 30 255 0.79524773 0.7255626
-0.1295861 0.07207054 0.11354194 30 30 30 255 0.79741615 0.7253478
-0.13425057 0.072150804 0.11316213 30 30 30 255 0.79930073 0.7251133
-0.20816483 0.1991744 -0.073268384 18 18 17 255 0.20346625 0.53387284
-0.19053558 0.18687783 -0.07576937 18 18 17 255 0.20833334 0.5544776
-0.20483398 0.19922243 -0.07344477 18 18 17 255 0.20467216 0.53378356
-0.19053558 0.18687783 -0.07576937 18 18 17 255 0.20833333 0.5544776
-0.20101087 0.19933476 -0.073582195 18 18 17 255 0.20606355 0.5335602
-0.19688721 0.19950575 -0.07367378 18 18 17 255 0.20757107 0.5332143
-0.19266976 0.19972685 -0.07371492 18 18 17 255 0.2091231 0.5327647
-0.18857002 0.19998692 -0.07370358 18 18 17 255 0.21064094 0.5322338
-0.18479356 0.20027298 -0.0736403 18 18 17 255 0.21204364 0.53164595
-0.18152975 0.20057066 -0.07352825 18 18 17 255 0.21326122 0.53103083
-0.2155637 0.2835648 0.008328866 41 40 40 255 0.48311368 0.32761675
-0.21222831 0.2842388 0.008456997 41 40 40 255 0.48319262 0.32900935
-0.2124112 0.28275508 0.009730101 41 40 40 255 0.48472115 0.32893044
-0.2158044 0.28206822 0.009599251 41 40 40 255 0.4846196 0.32750785
-0.20840788 0.28458685 0.008587046 41 40 40 255 0.4834746 0.33057424
-0.2085231 0.2831094 0.009863687 41 40 40 255 0.4850914 0.3305353
-0.20429389 0.28459147 0.008712492 41 40 40 255 0.48394078 0.332234
-0.20433499 0.28311345 0.009993314 41 40 40 255 0.48569903 0.33224574
-0.20009273 0.28425246 0.0088270465 41 40 40 255 0.4839395 0.33422667
-0.20005694 0.28276703 0.010112482 41 40 40 255 0.48560172 0.33420742
-0.19601502 0.2835869 0.008924965 41 40 40 255 0.48346376 0.3356177
-0.19590347 0.2820875 0.010215213 41 40 40 255 0.485039 0.3356572
-0.19226523 0.282628 0.009001336 41 40 40 255 0.48317254 0.33692393
-0.1920828 0.28110892 0.010296358 41 40 40 255 0.48469603 0.33700874
-0.18903139 0.28142396 0.0090523325 41 40 40 255 0.48308602 0.33808273
-0.18878658 0.2798804 0.010351845 41 40 40 255 0.48460105 0.33820063
-0.21538337 0.2846109 0.006767535 41 40 40 255 0.48173124 0.32769296
-0.21209016 0.28527397 0.0068951845 41 40 40 255 0.4818071 0.32906032
-0.20831908 0.285618 0.0070240716 41 40 40 255 0.4820592 0.33058548
-0.20425919 0.28562587 0.0071477355 41 40 40 255 0.4824718 0.3321932
-0.2001141 0.28529713 0.007259975 41 40 40 255 0.4828478 0.3342377
-0.19609165 0.28464824 0.0073551615 41 40 40 255 0.48220336 0.33558372
-0.19239356 0.2837118 0.007428522 41 40 40 255 0.48180348 0.33685344
-0.18920523 0.28253466 0.0074763778 41 40 40 255 0.48166874 0.33798558
-0.2152571 0.28513995 0.00502269 41 40 40 255 0.4787736 0.3278266
-0.2119919 0.28579372 0.0051518874 41 40 40 255 0.47882527 0.3291712
-0.20825304 0.28613558 0.0052818162 41 40 40 255 0.47897688 0.33066708
-0.20422798 0.28614837 0.005405961 41 40 40 255 0.47921956 0.33224005
-0.20011854 0.28583148 0.0055180965 41 40 40 255 0.48028442 0.3343153
-0.19613081 0.2852008 0.0056126006 41 40 40 255 0.47945336 0.3356163
-0.19246474 0.2842879 0.0056847334 41 40 40 255 0.47894418 0.336852
-0.18930417 0.2831386 0.005730877 41 40 40 255 0.4787736 0.33796203
-0.21517722 0.2851204 0.0032140196 41 40 40 255 0.47522685 0.3278458
-0.211928 0.28576633 0.0033465025 41 40 40 255 0.4752589 0.3291793
-0.20820662 0.28610742 0.0034794 41 40 40 255 0.47524488 0.33066708
-0.2041997 0.28612652 0.0036060484 41 40 40 255 0.47518665 0.33223432
-0.2001082 0.2858227 0.0037200954 41 40 40 255 0.47655642 0.33430463
-0.19613722 0.28521115 0.003815824 41 40 40 255 0.47597647 0.3355748
-0.19248593 0.2843226 0.0038884324 41 40 40 255 0.4756251 0.33678883
-0.18933739 0.28320155 0.003934282 41 40 40 255 0.47551352 0.33788607
-0.21513328 0.28455785 0.0014654486 41 40 40 255 0.47316468 0.32787585
-0.21189101 0.28519735 0.0016025745 41 40 40 255 0.473154 0.3292057
-0.20817631 0.2855391 0.0017399954 41 40 40 255 0.4729862 0.33069825
-0.20417555 0.28556594 0.0018708196 41 40 40 255 0.47267526 0.3322773
-0.20008928 0.28527656 0.0019884887 41 40 40 255 0.47395447 0.3342857
-0.19612238 0.28468543 0.0020871023 41 40 40 255 0.47369754 0.3355537
-0.19247383 0.28382224 0.0021617142 41 40 40 255 0.47353938 0.33676428
-0.18932654 0.28273025 0.0022085835 41 40 40 255 0.47348723 0.33785683
-0.21511334 0.2834949 -0.000103276216 41 40 40 255 0.47110924 0.3278987
-0.21187252 0.284129 3.938685e-05 41 40 40 255 0.47108096 0.3292294
-0.2081585 0.28447276 0.00018242282 41 40 40 255 0.47081995 0.33073533
-0.2041574 0.2845089 0.00031865865 41 40 40 255 0.47035038 0.33233914
-0.20006998 0.28423566 0.00044126232 41 40 40 255 0.47156596 0.33419466
-0.19610113 0.2836667 0.00054408587 41 40 40 255 0.47153825 0.33550578
-0.19244988 0.28283054 0.0006219733 41 40 40 255 0.47152096 0.33674192
-0.18929932 0.28176913 0.00067102147 41 40 40 255 0.47151467 0.33784112
-0.18303439 0.20538871 -0.072560325 18 18 17 255 0.21225116 0.52534795
-0.18629842 0.20509683 -0.07266907 18 18 17 255 0.21129346 0.52534175
-0.18479356 0.20027298 -0.0736403 18 18 17 255 0.2112436 0.5334561
-0.18152975 0.20057066 -0.07352825 18 18 17 255 0.21219927 0.5334319
-0.1900742 0.20481528 -0.072725736 18 18 17 255 0.2101928 0.5252185
-0.18857002 0.19998692 -0.07370358 18 18 17 255 0.21014495 0.53337073
-0.19417246 0.2045582 -0.07272751 18 18 17 255 0.2090043 0.52498376
-0.19266976 0.19972685 -0.07371492 18 18 17 255 0.20895828 0.5331791
-0.19838764 0.20433849 -0.072674304 18 18 17 255 0.20761086 0.52500385
-0.20250839 0.20416711 -0.07256879 18 18 17 255 0.20609385 0.5253501
-0.20632811 0.20405272 -0.07241624 18 18 17 255 0.20469391 0.52557224
-0.20965521 0.20400104 -0.072224304 18 18 17 255 0.20348088 0.5256591
-0.18446429 0.21061717 -0.070889 18 18 17 255 0.21238272 0.5163952
-0.1877292 0.21034355 -0.070992954 18 18 17 255 0.21142407 0.5163375
-0.19150409 0.21007764 -0.07104129 18 18 17 255 0.21032293 0.51615196
-0.19559978 0.20983283 -0.07103156 18 18 17 255 0.20913446 0.51584727
-0.19981085 0.20962138 -0.07096427 18 18 17 255 0.20773569 0.5158513
-0.20392613 0.2094539 -0.07084277 18 18 17 255 0.20620912 0.5161966
-0.20773934 0.20933874 -0.07067319 18 18 17 255 0.20480072 0.51641816
-0.21105914 0.20928174 -0.07046401 18 18 17 255 0.20358086 0.5165047
-0.18574698 0.21599232 -0.0685982 18 18 17 255 0.21258059 0.50704765
-0.18901366 0.2157488 -0.06869614 18 18 17 255 0.2116223 0.50692624
-0.19278824 0.21550924 -0.06873473 18 18 17 255 0.21051963 0.5066862
-0.19688141 0.21528558 -0.06871204 18 18 17 255 0.209328 0.50634086
-0.20108798 0.2150891 -0.068629205 18 18 17 255 0.20792557 0.50632155
-0.20519696 0.21492961 -0.06849039 18 18 17 255 0.20639649 0.5066089
-0.20900232 0.21481514 -0.06830255 18 18 17 255 0.20498398 0.50679576
-0.21231328 0.21475138 -0.0680751 18 18 17 255 0.20375876 0.50687265
-0.18681936 0.22124429 -0.065802805 18 18 17 255 0.21244517 0.500178
-0.19008857 0.22104137 -0.06589375 18 18 17 255 0.2114909 0.5000894
-0.19386336 0.22083747 -0.06592165 18 18 17 255 0.21039113 0.49990904
-0.19795449 0.22064288 -0.06588513 18 18 17 255 0.20920116 0.49964774
-0.20215678 0.2204673 -0.06578603 18 18 17 255 0.2078008 0.49964133
-0.20625952 0.22031954 -0.0656293 18 18 17 255 0.2062749 0.49983665
-0.21005696 0.22020704 -0.065422826 18 18 17 255 0.20486388 0.49995854
-0.21335873 0.22013544 -0.06517693 18 18 17 255 0.20363832 0.5
-0.18762988 0.22611105 -0.06264286 18 18 17 255 0.38550165 0.3375826
-0.19090174 0.22595681 -0.06272619 18 18 17 255 0.3855614 0.3365904
-0.19008857 0.22104137 -0.06589375 18 18 17 255 0.37507814 0.33644018
-0.18681936 0.22124429 -0.065802805 18 18 17 255 0.375 0.33737534
-0.19467707 0.22579592 -0.06274301 18 18 17 255 0.38572884 0.33544686
-0.19386336 0.22083747 -0.06592165 18 18 17 255 0.37530652 0.33536372
-0.19876654 0.22563648 -0.06269249 18 18 17 255 0.3859936 0.33420828
-0.19795449 0.22064288 -0.06588513 18 18 17 255 0.37567008 0.33419734
-0.20296511 0.22548646 -0.062577166 18 18 17 255 0.3859877 0.3327658
-0.20215678 0.2204673 -0.06578603 18 18 17 255 0.37560314 0.33280155
-0.2070622 0.22535339 -0.062402833 18 18 17 255 0.38588405 0.33121744
-0.20625952 0.22031954 -0.0656293 18 18 17 255 0.3752762 0.33127478
-0.21085241 0.22524394 -0.06217821 18 18 17 255 0.38585317 0.3297853
-0.21005696 0.22020704 -0.065422826 18 18 17 255 0.37507054 0.3298637
-0.21414568 0.22516362 -0.06191456 18 18 17 255 0.38589957 0.32854062
-0.21335873 0.22013544 -0.06517693 18 18 17 255 0.375 0.3286383
-0.18814047 0.23035131 -0.05927658 18 18 17 255 0.3904711 0.337434
-0.19141449 0.23025078 -0.059352133 18 18 17 255 0.39052555 0.33643332
-0.19519024 0.23013745 -0.05935807 18 18 17 255 0.39066374 0.33527896
-0.19927834 0.23001699 -0.059294123 18 18 17 255 0.3908775 0.33402854
-0.20347384 0.22989543 -0.05916348 18 18 17 255 0.39089948 0.33257765
-0.2075663 0.2297789 -0.058972687 18 18 17 255 0.39096206 0.33102164
-0.2113506 0.2296732 -0.058731347 18 18 17 255 0.39106268 0.3295816
-0.21463692 0.22958365 -0.058451507 18 18 17 255 0.39119866 0.32832935
-0.18832806 0.23375595 -0.055872478 18 18 17 255 0.39520442 0.33740303
-0.19160314 0.23371072 -0.055940527 18 18 17 255 0.39527506 0.336397
-0.19537881 0.23364633 -0.0559364 18 18 17 255 0.39545178 0.3352402
-0.19946574 0.23356605 -0.055860292 18 18 17 255 0.39572483 0.33399016
-0.203659 0.23347387 -0.055716038 18 18 17 255 0.3956911 0.33250862
-0.20774832 0.23337439 -0.05551084 18 18 17 255 0.3958295 0.3309437
-0.21152864 0.23327264 -0.055255014 18 18 17 255 0.39600056 0.3294949
-0.21481037 0.23317373 -0.0549614 18 18 17 255 0.39619765 0.32823455
-0.149396 0.10772564 0.11386025 41 40 40 255 0.7841795 0.5920106
-0.15382774 0.10782659 0.114022955 41 40 40 255 0.78602195 0.59192276
-0.16214618 0.11387089 0.113638155 41 40 40 255 0.78560185 0.5693909
-0.15784913 0.113767155 0.113475 41 40 40 255 0.7837434 0.5695281
-0.15893859 0.107934795 0.114009365 41 40 40 255 0.7881253 0.59172606
-0.16710258 0.11398346 0.11361349 41 40 40 255 0.7877072 0.56904924
-0.16447222 0.108044825 0.11382015 41 40 40 255 0.79038507 0.5914309
-0.17246981 0.11409924 0.11340231 41 40 40 255 0.78995556 0.56852067
-0.1701512 0.10815117 0.113464825 41 40 40 255 0.7929608 0.5920936
-0.1779787 0.11421242 0.11301516 41 40 40 255 0.7926407 0.5693847
-0.17569074 0.108248495 0.112961195 41 40 40 255 0.79525554 0.5921875
-0.18335302 0.11431733 0.11247148 41 40 40 255 0.79497373 0.56955934
-0.18081307 0.10833192 0.11233453 41 40 40 255 0.7973914 0.59229696
-0.18832333 0.11440869 0.11179851 41 40 40 255 0.79714406 0.56970906
-0.18526132 0.10839725 0.11161621 41 40 40 255 0.79926145 0.59241676
-0.19264033 0.11448194 0.111030005 41 40 40 255 0.7990426 0.5698261
-0.17015073 0.12063388 0.1125414 41 40 40 255 0.78454256 0.5438948
-0.16601692 0.1205215 0.11237235 41 40 40 255 0.7826764 0.544152
-0.17492038 0.12075639 0.112512775 41 40 40 255 0.78663546 0.5432279
-0.18008666 0.1208829 0.112287916 41 40 40 255 0.7888532 0.5421867
-0.18539053 0.12100707 0.11187811 41 40 40 255 0.79163367 0.5434412
-0.19056606 0.121122666 0.11130388 41 40 40 255 0.79402715 0.54385877
-0.19535367 0.12122389 0.110594064 41 40 40 255 0.7962457 0.54415095
-0.19951333 0.121305674 0.10978422 41 40 40 255 0.79817885 0.54430324
-0.17739429 0.1277768 0.110787235 41 40 40 255 0.78223526 0.49971074
-0.17342979 0.12765045 0.11060692 41 40 40 255 0.7803407 0.5
-0.18196955 0.12791419 0.1107621 41 40 40 255 0.7843482 0.498859
-0.1869262 0.12805572 0.1105328 41 40 40 255 0.78657454 0.49748817
-0.19201565 0.12819432 0.11011083 41 40 40 255 0.78944874 0.49911764
-0.1969827 0.12832303 0.10951736 41 40 40 255 0.79189193 0.4996
-0.2015783 0.12843539 0.10878215 41 40 40 255 0.79415333 0.499899
-0.20557198 0.12852578 0.10794203 41 40 40 255 0.7961212 0.5
-0.17342979 0.12765045 0.11060692 41 40 40 255 0.625 0.34465927
-0.17739429 0.1277768 0.110787235 41 40 40 255 0.62496364 0.342751
-0.18349873 0.13494349 0.108465634 41 40 40 255 0.620469 0.34271136
-0.17969644 0.13479915 0.10826984 41 40 40 255 0.6203882 0.34458327
-0.18196955 0.12791419 0.1107621 41 40 40 255 0.624861 0.34059885
-0.18788697 0.13509932 0.10845092 41 40 40 255 0.6204841 0.340582
-0.1869262 0.12805572 0.1105328 41 40 40 255 0.62470484 0.33830887
-0.19264112 0.13525884 0.108226426 41 40 40 255 0.62043566 0.3383032
-0.19201565 0.12819432 0.11011083 41 40 40 255 0.6248767 0.33552796
-0.1975228 0.13541408 0.107803434 41 40 40 255 0.62071526 0.33560443
-0.1969827 0.12832303 0.10951736 41 40 40 255 0.62494403 0.3330981
-0.20228721 0.1355572 0.10720312 41 40 40 255 0.62079895 0.3332205
-0.2015783 0.12843539 0.10878215 41 40 40 255 0.6249858 0.33084422
-0.20669545 0.13568108 0.10645562 41 40 40 255 0.6208478 0.33100054
-0.20557198 0.12852578 0.10794203 41 40 40 255 0.625 0.32887876
-0.21052648 0.13577947 0.105598375 41 40 40 255 0.62085897 0.32905534
-0.1881547 0.14177725 0.10569585 41 40 40 255 0.6148557 0.34035444
-0.1844982 0.1416126 0.10548184 41 40 40 255 0.61473703 0.34213042
-0.19237407 0.14195341 0.10569726 41 40 40 255 0.6148925 0.33831686
-0.19694473 0.14213228 0.105486006 41 40 40 255 0.61484855 0.33612177
-0.20163754 0.14230485 0.10507268 41 40 40 255 0.61512923 0.3336145
-0.20621714 0.1424625 0.10447799 41 40 40 255 0.6151588 0.33137572
-0.21045388 0.14259732 0.103731774 41 40 40 255 0.6151446 0.32928306
-0.21413535 0.14270253 0.102871455 41 40 40 255 0.6150858 0.3274422
-0.19113162 0.14793795 0.10261905 41 40 40 255 0.60966843 0.33885735
-0.18759783 0.14775239 0.10238582 41 40 40 255 0.60949755 0.3405368
-0.19520853 0.14813465 0.102640584 41 40 40 255 0.60975397 0.33693185
-0.1996241 0.1483326 0.10244929 41 40 40 255 0.60975397 0.33485925
-0.20415697 0.1485219 0.1020548 41 40 40 255 0.6100082 0.3324741
-0.20857978 0.14869304 0.10147686 41 40 40 255 0.6099872 0.33033505
-0.21267079 0.14883746 0.10074449 41 40 40 255 0.60991484 0.32833618
-0.21622483 0.14894791 0.09989438 41 40 40 255 0.6097924 0.3265785
-0.19229648 0.15311903 0.099391825 41 40 40 255 0.6049292 0.33820975
-0.18886058 0.15291367 0.09914018 41 40 40 255 0.60470635 0.3398074
-0.19626051 0.1533348 0.09943525 41 40 40 255 0.6050674 0.33637944
-0.2005539 0.15355018 0.09926825 41 40 40 255 0.6051192 0.33441135
-0.20496136 0.15375432 0.09889921 41 40 40 255 0.60533035 0.3321298
-0.20926188 0.15393704 0.09834663 41 40 40 255 0.6052862 0.3300633
-0.21323979 0.15408914 0.097638234 41 40 40 255 0.60517997 0.32813415
-0.21669568 0.15420301 0.09680953 41 40 40 255 0.605014 0.32644004
-0.11851961 0.07187849 0.11409477 31 31 31 255 0.79276246 0.7262081
-0.124253325 0.07197823 0.113858104 30 30 30 255 0.79466057 0.72621995
-0.1295861 0.07207054 0.11354194 30 30 30 255 0.7964305 0.7262333
-0.13425057 0.072150804 0.11316213 30 30 30 255 0.7979836 0.7262475
-0.34327963 0.25071955 -0.0043854006 30 30 30 255 0.47010282 0.27465025
0.02616027 0.18504928 0.01180497 30 30 30 255 0.4845744 0.4166569
-0.3426806 0.25110108 -0.002394426 30 30 30 255 0.4728517 0.27466854
-0.34207538 0.25099453 -0.0003828937 30 30 30 255 0.4787736 0.27464402
0.02880657 0.18762523 0.0081978915 30 30 30 255 0.47877353 0.41659108
0.027447402 0.1862676 0.010050523 30 30 30 255 0.48174992 0.41662854
0.06740943 0.23830977 -0.049854126 18 18 17 255 0.38953516 0.41554123
0.06923367 0.23677747 -0.04690687 18 18 17 255 0.3938594 0.4166667
-0.35526899 0.2258131 -0.04455262 18 18 17 255 0.39839107 0.27468997
0.08641757 0.2276814 -0.061291814 18 18 17 255 0.29098555 0.52627635
0.08033873 0.23146582 -0.060677458 18 18 17 255 0.28985864 0.5206474
-0.3576415 0.20306055 -0.062014297 18 18 17 255 0.1497009 0.52649975
0.06711108 0.23886205 -0.052718017 18 18 17 255 0.3851813 0.41492784
-0.35621902 0.22210579 -0.04865154 18 18 17 255 0.3899694 0.27482516
0.068353504 0.23840663 -0.055354953 18 18 17 255 0.375 0.41059545
-0.3569623 0.21774879 -0.05263833 18 18 17 255 0.375 0.27536756
0.071074426 0.23696636 -0.05763269 18 18 17 255 0.28812057 0.512192
0.068353504 0.23840663 -0.055354953 18 18 17 255 0.28701586 0.50362134
-0.3574616 0.21296059 -0.056313094 18 18 17 255 0.15014555 0.5078348
0.075137414 0.23461342 -0.059437014 18 18 17 255 0.28893328 0.5157366
-0.35769182 0.20798132 -0.059491538 18 18 17 255 0.14986962 0.5173351
0.07529645 0.2392728 -0.053321656 18 18 17 255 0 0
0.07529195 0.23927446 -0.053323373 18 18 17 255 0 0
0.071074426 0.23696636 -0.05763269 18 18 17 255 0 0
0.068353504 0.23840663 -0.055354953 18 18 17 255 0 0
0.06711108 0.23886205 -0.052718017 18 18 17 255 0 0
0.06923367 0.23677747 -0.04690687 18 18 17 255 0 0
0.06740943 0.23830977 -0.049854126 18 18 17 255 0 0
4 0 1 2 3
4 1 4 5 2
4 4 6 7 5
4 8 9 10 11
4 9 12 13 10
4 12 14 15 13
4 14 16 17 15
4 18 19 20 21
4 19 22 23 20
4 22 24 25 23
4 26 27 28 25
4 27 29 30 28
4 29 31 32 30
4 33 34 35 36
4 34 37 38 35
4 37 39 40 38
4 41 42 7 43
4 42 44 5 7
4 44 45 2 5
4 45 46 3 2
4 47 48 49 50
4 48 51 52 49
4 51 53 54 52
4 53 55 56 54
4 57 58 59 60
4 58 61 62 59
4 61 63 64 62
4 50 49 18 65
4 49 52 19 18
4 52 54 22 19
4 54 56 24 22
4 60 59 27 26
4 59 62 29 27
4 62 64 31 29
4 66 67 68 69
4 67 70 71 68
4 70 72 73 71
4 72 74 75 76
4 74 77 78 75
4 77 79 80 78
4 79 81 82 80
4 68 71 83 84
4 71 73 85 83
4 76 75 86 87
4 75 78 88 86
4 78 80 89 88
4 80 82 90 89
4 84 83 37 34
4 83 85 39 37
4 87 86 42 41
4 86 88 44 42
4 88 89 45 44
4 89 90 46 45
4 91 92 48 47
4 92 93 51 48
4 93 94 53 51
4 94 95 55 53
4 96 97 58 57
4 97 98 61 58
4 98 99 63 61
4 99 98 1 0
4 98 97 4 1
4 97 96 6 4
4 96 100 101 6
4 102 103 12 9
4 103 104 14 12
4 104 105 16 14
4 105 106 107 16
4 63 99 0 108
4 108 0 3 46
4 32 31 109 110
4 110 109 82 81
4 64 63 108 111
4 31 64 111 109
4 109 111 90 82
4 111 108 46 90
3 112 113 114
3 114 113 115
3 115 113 116
3 116 113 117
3 117 113 118
3 118 113 119
3 120 121 122
3 122 121 123
3 123 121 124
3 124 121 125
3 125 121 126
3 126 121 127
4 128 129 130 131
4 129 132 133 130
4 132 134 135 136
4 137 138 129 128
4 138 139 132 129
4 139 140 134 132
3 141 113 135
4 131 65 137 128
3 21 134 140
7 65 18 21 140 139 138 137
3 142 143 144
3 144 145 146
3 146 145 147
3 147 145 148
3 148 145 149
3 149 145 150
3 150 145 151
3 152 153 154
6 106 155 156 157 121 107
5 158 91 47 151 143
4 159 160 161 162
3 153 163 154
3 152 154 164
4 165 166 167 168
4 166 169 170 167
4 169 171 172 170
4 173 174 175 172
4 174 176 177 175
4 176 178 179 177
4 178 180 181 179
4 182 183 184 185
4 183 186 187 184
4 186 188 189 187
4 190 191 192 193
4 191 194 195 192
4 194 196 197 195
4 196 198 199 197
3 198 121 120
11 16 107 198 196 194 191 190 200 201 202 17
4 185 33 36 182
3 203 181 180
3 77 81 79
4 168 66 69 165
3 204 205 206
3 206 207 208
3 208 207 209
3 209 207 210
3 210 207 211
3 211 207 212
3 212 207 213
3 214 215 216
3 216 217 218
3 218 217 219
3 219 217 220
3 220 217 221
3 221 217 222
3 222 217 223
4 224 225 226 227
4 225 228 229 226
4 228 230 231 229
4 230 232 233 231
4 232 234 235 233
4 234 236 237 235
4 236 238 239 237
4 240 241 225 224
4 241 242 228 225
4 242 243 230 228
4 243 244 232 230
4 244 245 234 232
4 245 246 236 234
4 246 247 238 236
4 248 249 241 240
4 249 250 242 241
4 250 251 243 242
4 251 252 244 243
4 252 253 245 244
4 253 254 246 245
4 254 255 247 246
4 256 257 249 248
4 257 258 250 249
4 258 259 251 250
4 259 260 252 251
4 260 261 253 252
4 261 262 254 253
4 262 263 255 254
4 264 265 257 256
4 265 266 258 257
4 266 267 259 258
4 267 268 260 259
4 268 269 261 260
4 269 270 262 261
4 270 271 263 262
4 272 273 265 264
4 273 274 266 265
4 274 275 267 266
4 275 276 268 267
4 276 277 269 268
4 277 278 270 269
4 278 279 271 270
4 280 281 282 283
4 281 284 285 282
4 284 286 287 285
4 286 288 219 287
4 288 289 218 219
4 289 290 216 218
4 290 291 214 216
4 292 293 281 280
4 293 294 284 281
4 294 295 286 284
4 295 296 288 286
4 296 297 289 288
4 297 298 290 289
4 298 299 291 290
4 300 301 293 292
4 301 302 294 293
4 302 303 295 294
4 303 304 296 295
4 304 305 297 296
4 305 306 298 297
4 306 307 299 298
4 308 309 301 300
4 309 310 302 301
4 310 311 303 302
4 311 312 304 303
4 312 313 305 304
4 313 314 306 305
4 314 315 307 306
4 316 317 318 319
4 317 320 321 318
4 320 322 323 321
4 322 324 325 323
4 324 326 327 325
4 326 328 329 327
4 328 330 331 329
4 332 333 317 316
4 333 334 320 317
4 334 335 322 320
4 335 336 324 322
4 336 337 326 324
4 337 338 328 326
4 338 339 330 328
4 340 341 333 332
4 341 342 334 333
4 342 343 335 334
4 343 344 336 335
4 344 345 337 336
4 345 346 338 337
4 346 347 339 338
4 279 278 341 340
4 278 277 342 341
4 277 276 343 342
4 276 275 344 343
4 275 274 345 344
4 274 273 346 345
4 273 272 347 346
4 348 349 350 351
4 349 352 353 350
4 352 354 355 353
4 354 356 357 355
4 356 358 359 357
4 358 360 361 359
4 360 362 363 361
4 351 350 364 365
4 350 353 366 364
4 353 355 367 366
4 355 357 368 367
4 357 359 369 368
4 359 361 370 369
4 361 363 371 370
4 365 364 372 373
4 364 366 374 372
4 366 367 375 374
4 367 368 376 375
4 368 369 377 376
4 369 370 378 377
4 370 371 379 378
4 380 381 382 383
4 381 384 385 382
4 384 386 387 385
4 386 388 389 387
4 388 390 391 389
4 390 392 393 391
4 392 394 395 393
4 383 382 396 397
4 382 385 398 396
4 385 387 399 398
4 387 389 400 399
4 389 391 401 400
4 391 393 402 401
4 393 395 403 402
4 397 396 404 405
4 396 398 406 404
4 398 399 407 406
4 399 400 408 407
4 400 401 409 408
4 401 402 410 409
4 402 403 411 410
4 405 404 412 413
4 404 406 414 412
4 406 407 415 414
4 407 408 416 415
4 408 409 417 416
4 409 410 418 417
4 410 411 419 418
4 413 412 237 239
4 412 414 235 237
4 414 415 233 235
4 415 416 231 233
4 416 417 229 231
4 417 418 226 229
4 418 419 227 226
4 204 206 349 348
4 206 208 352 349
4 208 209 354 352
4 209 420 356 354
4 420 421 358 356
4 421 422 360 358
4 422 423 362 360
4 165 69 204 348
5 69 68 84 205 204
5 205 84 34 33 423
4 362 423 33 185
4 424 157 272 264
4 156 347 272 157
4 271 279 112 114
3 340 135 112
4 120 122 224 227
4 239 238 425 203
3 199 120 227
3 239 203 180
4 426 424 264 256
4 263 271 114 115
4 427 426 256 248
4 255 263 115 428
4 123 427 248 240
4 247 255 428 429
4 122 123 240 224
4 238 247 429 425
4 430 431 340 332
4 339 347 156 432
4 433 434 280 283
4 214 291 435 151
6 215 50 65 131 433 283
5 151 47 50 215 214
4 436 430 332 316
4 330 339 432 437
4 438 436 316 319
4 331 330 437 439
4 440 441 308 300
4 307 315 147 442
4 443 440 300 292
4 299 307 442 444
4 434 443 292 280
4 291 299 444 435
4 185 184 363 362
4 348 351 166 165
4 405 413 180 178
4 197 199 419 411
4 184 187 371 363
4 351 365 169 166
4 187 189 379 371
4 365 373 171 169
4 193 192 395 394
4 380 383 174 173
4 192 195 403 395
4 383 397 176 174
4 195 197 411 403
4 397 405 178 176
3 164 154 445
3 445 446 164
3 446 447 164
3 447 446 448
3 446 449 448
3 450 451 446
3 446 451 449
3 110 66 141
3 141 167 181
3 110 81 66
3 181 177 179
3 177 181 175
3 175 181 172
3 172 181 170
3 170 181 167
3 167 141 168
3 168 141 66
3 66 81 67
3 67 81 70
3 70 81 72
3 72 81 74
3 74 81 77
3 134 110 141
3 110 21 32
3 32 20 30
3 30 23 28
3 28 23 25
3 23 30 20
3 134 21 110
3 32 21 20
3 141 181 113
3 113 181 203
3 134 141 135
3 135 113 112
3 239 180 413
3 340 112 279
3 135 340 431
3 199 227 419
3 121 198 107
3 198 120 199
