ply
format ascii 1.0
comment Created in Blender version 5.1.2
element vertex 18
property float x
property float y
property float z
property uchar red
property uchar green
property uchar blue
property uchar alpha
element face 32
property list uchar uint vertex_indices
end_header
-0.16411328 -0.17798159 0.16288903 162 108 254 255
-0.16411328 -0.17798159 0.23799211 162 108 254 255
0.11562834 0.08359262 0.16288903 162 108 254 255
0.11562834 0.08359262 0.23799211 162 108 254 255
-0.06835398 -0.013306905 -1.107862 140 92 219 255
-0.05181583 0.009727452 -1.1024632 110 73 173 255
-0.12141244 0.08359262 0.60744727 162 108 254 255
-0.16411327 0.045638375 0.6107367 162 108 254 255
0.052873313 -0.15281096 -0.22550088 162 108 254 255
0.100900196 -0.10637933 -0.22491321 171 124 254 255
0.11562834 -0.13133126 0.23097968 162 108 254 255
0.06737659 -0.17798159 0.23092973 162 108 254 255
0.10343792 -0.11711509 0.32321674 170 122 254 255
0.05450289 -0.16433495 0.3238753 162 108 254 255
-0.016453305 0.0040739514 -1.109009 110 73 173 255
-0.060125694 -0.03318964 -1.107862 110 73 173 255
-0.14719081 0.035670213 0.6107367 162 108 254 255
-0.11302477 0.06562105 0.60744727 162 108 254 255
3 5 7 6
3 0 7 4
3 6 2 5
3 8 10 11
3 13 10 12
3 9 15 14
3 17 13 12
3 14 2 9
3 3 9 2
3 11 0 8
3 0 15 8
3 10 3 12
3 1 11 13
3 3 17 12
3 16 1 13
3 5 15 4
3 7 17 6
3 5 4 7
3 0 1 7
3 6 3 2
3 8 9 10
3 13 11 10
3 9 8 15
3 17 16 13
3 14 5 2
3 3 10 9
3 11 1 0
3 0 4 15
3 3 6 17
3 16 7 1
3 5 14 15
3 7 16 17
